<svg width="38" height="38" viewBox="0 0 38 38" fill="none" xmlns="http://www.w3.org/2000/svg">
<path fill-rule="evenodd" clip-rule="evenodd" d="M2.31472 19C2.31472 28.215 9.78498 35.6853 19 35.6853C28.215 35.6853 35.6853 28.215 35.6853 19C35.6853 9.78498 28.215 2.31472 19 2.31472C9.78498 2.31472 2.31472 9.78498 2.31472 19ZM19 0C8.50659 0 0 8.50659 0 19C0 29.4934 8.50659 38 19 38C29.4934 38 38 29.4934 38 19C38 8.50659 29.4934 0 19 0Z" fill="#2E2E2E"/>
<path d="M17.1675 32.2132C17.1675 31.574 17.6857 31.0559 18.3249 31.0559H19.868C20.5072 31.0559 21.0254 31.574 21.0254 32.2132V36.0711C21.0254 36.7103 20.5072 37.2285 19.868 37.2285H18.3249C17.6857 37.2285 17.1675 36.7103 17.1675 36.0711V32.2132Z" fill="#2E2E2E"/>
<path d="M17.1675 1.929C17.1675 1.2898 17.6857 0.771637 18.3249 0.771637H19.868C20.5072 0.771637 21.0254 1.2898 21.0254 1.929V5.78686C21.0254 6.42606 20.5072 6.94423 19.868 6.94423H18.3249C17.6857 6.94423 17.1675 6.42606 17.1675 5.78686V1.929Z" fill="#2E2E2E"/>
<path d="M32.4061 21.0254C31.7669 21.0254 31.2487 20.5073 31.2487 19.8681V18.3249C31.2487 17.6857 31.7669 17.1676 32.4061 17.1676H35.8782C36.5174 17.1676 37.0356 17.6857 37.0356 18.3249V19.8681C37.0356 20.5073 36.5174 21.0254 35.8782 21.0254H32.4061Z" fill="#2E2E2E"/>
<path d="M1.92895 21.0254C1.28976 21.0254 0.771591 20.5073 0.771591 19.8681V18.3249C0.771591 17.6857 1.28976 17.1676 1.92895 17.1676H5.78682C6.42601 17.1676 6.94418 17.6857 6.94418 18.3249V19.8681C6.94418 20.5073 6.42601 21.0254 5.78682 21.0254H1.92895Z" fill="#2E2E2E"/>
<path d="M27.0588 29.6903C26.6068 29.2383 26.6068 28.5055 27.0588 28.0535L28.1499 26.9624C28.6019 26.5104 29.3347 26.5104 29.7867 26.9624L32.3823 29.558C32.8343 30.0099 32.8343 30.7427 32.3823 31.1947L31.2911 32.2859C30.8391 32.7379 30.1063 32.7379 29.6544 32.2859L27.0588 29.6903Z" fill="#2E2E2E"/>
<path d="M5.69158 8.32308C5.2396 7.8711 5.2396 7.1383 5.69158 6.68632L6.78275 5.59515C7.23472 5.14318 7.96752 5.14318 8.4195 5.59515L11.1173 8.29291C11.5692 8.74489 11.5692 9.47769 11.1173 9.92966L10.0261 11.0208C9.57411 11.4728 8.84131 11.4728 8.38933 11.0208L5.69158 8.32308Z" fill="#2E2E2E"/>
<path d="M8.62349 26.7451C9.07546 26.2931 9.80826 26.2931 10.2602 26.7451L11.3514 27.8362C11.8034 28.2882 11.8034 29.021 11.3514 29.473L8.42709 32.3973C7.97511 32.8493 7.24231 32.8493 6.79034 32.3973L5.69917 31.3061C5.24719 30.8542 5.24719 30.1214 5.69917 29.6694L8.62349 26.7451Z" fill="#2E2E2E"/>
<path d="M29.7441 5.62444C30.1961 5.17246 30.9289 5.17246 31.3809 5.62444L32.472 6.71561C32.924 7.16759 32.924 7.90039 32.472 8.35236L29.8035 11.0209C29.3516 11.4728 28.6188 11.4728 28.1668 11.0209L27.0756 9.9297C26.6236 9.47772 26.6236 8.74492 27.0756 8.29295L29.7441 5.62444Z" fill="#2E2E2E"/>
</svg>
