<svg width="324" height="204" viewBox="0 0 324 204" fill="none" xmlns="http://www.w3.org/2000/svg">
<path fill-rule="evenodd" clip-rule="evenodd" d="M12.0072 0C6.63894 0 2.28709 4.35185 2.28709 9.72013V131.127H1.71532C0.767974 131.127 0 131.894 0 132.842V184.111C0 185.058 0.767974 185.826 1.71532 185.826H2.28709V193.64C2.28709 199.009 6.63893 203.36 12.0072 203.36H311.044C316.413 203.36 320.764 199.009 320.764 193.64V185.826H321.336C322.284 185.826 323.052 185.058 323.052 184.111V132.842C323.052 131.894 322.284 131.127 321.336 131.127H320.764V9.72013C320.764 4.35185 316.413 0 311.044 0H12.0072ZM23.0615 14.2943C20.1142 14.2943 17.7249 16.6836 17.7249 19.6309V145.04C17.7249 147.987 20.1142 150.376 23.0615 150.376H299.799C302.747 150.376 305.136 147.987 305.136 145.04V19.6309C305.136 16.6836 302.747 14.2943 299.799 14.2943H23.0615Z" fill="url(#paint0_linear_2_509)"/>
<path d="M64.515 157.523H259.108L267.399 203.36H56.7008L64.515 157.523Z" fill="url(#paint1_linear_2_509)"/>
<path d="M62.9903 154.093L64.8009 157.428L56.7008 203.265H52.8889L61.4655 155.332L61.6561 154.76L61.942 154.379L62.4185 154.093H62.9903Z" fill="#6C6C6C"/>
<path d="M260.442 154.093L258.727 158.381H64.7056L64.6103 157.714L62.9903 154.093H260.442Z" fill="#878787"/>
<path d="M258.918 157.619L260.442 154.093L261.491 154.474L261.967 155.427L262.253 156.761L271.211 203.456H267.399L258.918 157.619Z" fill="#979696"/>
<path fill-rule="evenodd" clip-rule="evenodd" d="M94.2472 62.5138C80.5107 62.5138 69.3751 73.6494 69.3751 87.3859C69.3751 101.122 80.5107 112.258 94.2472 112.258H229.186C242.922 112.258 254.058 101.122 254.058 87.3859C254.058 73.6494 242.922 62.5138 229.186 62.5138H94.2472ZM198.024 70.8998H125.218V104.063H198.024V70.8998ZM248.34 87.4812C248.34 97.3757 240.319 105.397 230.424 105.397C220.53 105.397 212.509 97.3757 212.509 87.4812C212.509 77.5867 220.53 69.5657 230.424 69.5657C240.319 69.5657 248.34 77.5867 248.34 87.4812ZM92.6272 105.397C102.522 105.397 110.543 97.3757 110.543 87.4812C110.543 77.5867 102.522 69.5657 92.6272 69.5657C82.7327 69.5657 74.7116 77.5867 74.7116 87.4812C74.7116 97.3757 82.7327 105.397 92.6272 105.397Z" fill="url(#paint2_linear_2_509)"/>
<defs>
<linearGradient id="paint0_linear_2_509" x1="161.526" y1="0" x2="161.526" y2="203.36" gradientUnits="userSpaceOnUse">
<stop stop-color="#6C6C6C"/>
<stop offset="0.213542" stop-color="#666666"/>
<stop offset="1" stop-color="#595959"/>
</linearGradient>
<linearGradient id="paint1_linear_2_509" x1="162.05" y1="157.523" x2="162.05" y2="203.36" gradientUnits="userSpaceOnUse">
<stop stop-color="#6C6C6C"/>
<stop offset="0.213542" stop-color="#666666"/>
<stop offset="1" stop-color="#595959"/>
</linearGradient>
<linearGradient id="paint2_linear_2_509" x1="161.716" y1="62.5138" x2="161.716" y2="112.258" gradientUnits="userSpaceOnUse">
<stop stop-color="#6C6C6C"/>
<stop offset="0.213542" stop-color="#666666"/>
<stop offset="1" stop-color="#595959"/>
</linearGradient>
</defs>
</svg>
