<svg width="515" height="177" viewBox="0 0 515 177" fill="none" xmlns="http://www.w3.org/2000/svg">
<g filter="url(#filter0_di_1_168)">
<rect x="7" y="4" width="501" height="162" rx="5" fill="url(#paint0_radial_1_168)"/>
<g filter="url(#filter1_d_1_168)">
<rect x="365.5" y="16.5" width="19" height="11" rx="1.5" stroke="#66B0A8"/>
<path fill-rule="evenodd" clip-rule="evenodd" d="M368 22C368 23.6569 369.343 25 371 25H379C380.657 25 382 23.6569 382 22C382 20.3431 380.657 19 379 19C377.343 19 376 20.3431 376 22C376 22.3506 376.06 22.6872 376.171 23H373.829C373.94 22.6872 374 22.3506 374 22C374 20.3431 372.657 19 371 19C369.343 19 368 20.3431 368 22ZM373 22C373 23.1046 372.105 24 371 24C369.895 24 369 23.1046 369 22C369 20.8954 369.895 20 371 20C372.105 20 373 20.8954 373 22ZM381 22C381 23.1046 380.105 24 379 24C377.895 24 377 23.1046 377 22C377 20.8954 377.895 20 379 20C380.105 20 381 20.8954 381 22Z" fill="#66B0A8"/>
</g>
<g filter="url(#filter2_d_1_168)">
<path d="M462 17C462 15.8954 462.895 15 464 15H491C492.105 15 493 15.8954 493 17V29C493 30.1046 492.105 31 491 31H464C462.895 31 462 30.1046 462 29V17Z" fill="#B47700"/>
</g>
<g filter="url(#filter3_d_1_168)">
<path d="M466.762 18.9688H469.943C470.596 18.9688 471.156 19.0664 471.625 19.2617C472.098 19.457 472.461 19.7461 472.715 20.1289C472.969 20.5117 473.096 20.9824 473.096 21.541C473.096 21.998 473.018 22.3906 472.861 22.7188C472.709 23.043 472.492 23.3145 472.211 23.5332C471.934 23.748 471.607 23.9199 471.232 24.0488L470.676 24.3418H467.91L467.898 22.9707H469.955C470.264 22.9707 470.52 22.916 470.723 22.8066C470.926 22.6973 471.078 22.5449 471.18 22.3496C471.285 22.1543 471.338 21.9277 471.338 21.6699C471.338 21.3965 471.287 21.1602 471.186 20.9609C471.084 20.7617 470.93 20.6094 470.723 20.5039C470.516 20.3984 470.256 20.3457 469.943 20.3457H468.52V27.5H466.762V18.9688ZM471.531 27.5L469.586 23.6973L471.443 23.6855L473.412 27.418V27.5H471.531ZM480.174 26.1289V27.5H475.633V26.1289H480.174ZM476.207 18.9688V27.5H474.449V18.9688H476.207ZM479.582 22.4434V23.7793H475.633V22.4434H479.582ZM480.168 18.9688V20.3457H475.633V18.9688H480.168ZM486.145 24.6699H487.896C487.861 25.2441 487.703 25.7539 487.422 26.1992C487.145 26.6445 486.756 26.9922 486.256 27.2422C485.76 27.4922 485.162 27.6172 484.463 27.6172C483.916 27.6172 483.426 27.5234 482.992 27.3359C482.559 27.1445 482.188 26.8711 481.879 26.5156C481.574 26.1602 481.342 25.7305 481.182 25.2266C481.021 24.7227 480.941 24.1582 480.941 23.5332V22.9414C480.941 22.3164 481.023 21.752 481.188 21.248C481.355 20.7402 481.594 20.3086 481.902 19.9531C482.215 19.5977 482.588 19.3242 483.021 19.1328C483.455 18.9414 483.939 18.8457 484.475 18.8457C485.186 18.8457 485.785 18.9746 486.273 19.2324C486.766 19.4902 487.146 19.8457 487.416 20.2988C487.689 20.752 487.854 21.2676 487.908 21.8457H486.15C486.131 21.502 486.062 21.2109 485.945 20.9727C485.828 20.7305 485.65 20.5488 485.412 20.4277C485.178 20.3027 484.865 20.2402 484.475 20.2402C484.182 20.2402 483.926 20.2949 483.707 20.4043C483.488 20.5137 483.305 20.6797 483.156 20.9023C483.008 21.125 482.896 21.4062 482.822 21.7461C482.752 22.082 482.717 22.4766 482.717 22.9297V23.5332C482.717 23.9746 482.75 24.3633 482.816 24.6992C482.883 25.0312 482.984 25.3125 483.121 25.543C483.262 25.7695 483.441 25.9414 483.66 26.0586C483.883 26.1719 484.15 26.2285 484.463 26.2285C484.83 26.2285 485.133 26.1699 485.371 26.0527C485.609 25.9355 485.791 25.7617 485.916 25.5312C486.045 25.3008 486.121 25.0137 486.145 24.6699Z" fill="#2E2E2E"/>
</g>
<g filter="url(#filter4_d_1_168)">
<path d="M428.288 129.16L425.388 138H423.051L427.014 127.336H428.5L428.288 129.16ZM430.698 138L427.79 129.16L427.556 127.336H429.057L433.042 138H430.698ZM430.566 134.03V135.751H424.934V134.03H430.566ZM439.787 127.336H441.977V134.382C441.977 135.202 441.801 135.893 441.45 136.455C441.103 137.016 440.622 137.438 440.007 137.722C439.396 138.005 438.693 138.146 437.897 138.146C437.102 138.146 436.394 138.005 435.773 137.722C435.158 137.438 434.675 137.016 434.323 136.455C433.977 135.893 433.803 135.202 433.803 134.382V127.336H436V134.382C436 134.86 436.076 135.251 436.228 135.554C436.379 135.856 436.596 136.079 436.879 136.22C437.167 136.362 437.507 136.433 437.897 136.433C438.298 136.433 438.637 136.362 438.916 136.22C439.199 136.079 439.414 135.856 439.56 135.554C439.711 135.251 439.787 134.86 439.787 134.382V127.336ZM448.554 127.336V138H446.364V127.336H448.554ZM451.835 127.336V129.057H443.134V127.336H451.835ZM461.643 132.419V132.924C461.643 133.735 461.533 134.462 461.313 135.107C461.093 135.751 460.783 136.301 460.383 136.755C459.982 137.204 459.504 137.548 458.947 137.788C458.396 138.027 457.783 138.146 457.109 138.146C456.44 138.146 455.827 138.027 455.271 137.788C454.719 137.548 454.24 137.204 453.835 136.755C453.43 136.301 453.115 135.751 452.89 135.107C452.67 134.462 452.561 133.735 452.561 132.924V132.419C452.561 131.604 452.67 130.876 452.89 130.236C453.11 129.592 453.42 129.042 453.82 128.588C454.226 128.134 454.704 127.788 455.256 127.548C455.812 127.309 456.425 127.189 457.094 127.189C457.768 127.189 458.381 127.309 458.933 127.548C459.489 127.788 459.968 128.134 460.368 128.588C460.773 129.042 461.086 129.592 461.306 130.236C461.53 130.876 461.643 131.604 461.643 132.419ZM459.423 132.924V132.404C459.423 131.838 459.372 131.34 459.27 130.91C459.167 130.48 459.016 130.119 458.815 129.826C458.615 129.533 458.371 129.313 458.083 129.167C457.795 129.016 457.465 128.94 457.094 128.94C456.723 128.94 456.394 129.016 456.105 129.167C455.822 129.313 455.581 129.533 455.38 129.826C455.185 130.119 455.036 130.48 454.934 130.91C454.831 131.34 454.78 131.838 454.78 132.404V132.924C454.78 133.486 454.831 133.984 454.934 134.418C455.036 134.848 455.188 135.212 455.388 135.51C455.588 135.803 455.832 136.025 456.12 136.176C456.408 136.328 456.738 136.403 457.109 136.403C457.48 136.403 457.81 136.328 458.098 136.176C458.386 136.025 458.627 135.803 458.823 135.51C459.018 135.212 459.167 134.848 459.27 134.418C459.372 133.984 459.423 133.486 459.423 132.924ZM475.72 132.419V132.924C475.72 133.735 475.61 134.462 475.39 135.107C475.17 135.751 474.86 136.301 474.46 136.755C474.06 137.204 473.581 137.548 473.024 137.788C472.473 138.027 471.86 138.146 471.186 138.146C470.517 138.146 469.904 138.027 469.348 137.788C468.796 137.548 468.317 137.204 467.912 136.755C467.507 136.301 467.192 135.751 466.967 135.107C466.748 134.462 466.638 133.735 466.638 132.924V132.419C466.638 131.604 466.748 130.876 466.967 130.236C467.187 129.592 467.497 129.042 467.897 128.588C468.303 128.134 468.781 127.788 469.333 127.548C469.89 127.309 470.502 127.189 471.171 127.189C471.845 127.189 472.458 127.309 473.01 127.548C473.566 127.788 474.045 128.134 474.445 128.588C474.851 129.042 475.163 129.592 475.383 130.236C475.607 130.876 475.72 131.604 475.72 132.419ZM473.5 132.924V132.404C473.5 131.838 473.449 131.34 473.347 130.91C473.244 130.48 473.093 130.119 472.893 129.826C472.692 129.533 472.448 129.313 472.16 129.167C471.872 129.016 471.542 128.94 471.171 128.94C470.8 128.94 470.471 129.016 470.183 129.167C469.899 129.313 469.658 129.533 469.458 129.826C469.262 130.119 469.113 130.48 469.011 130.91C468.908 131.34 468.857 131.838 468.857 132.404V132.924C468.857 133.486 468.908 133.984 469.011 134.418C469.113 134.848 469.265 135.212 469.465 135.51C469.665 135.803 469.909 136.025 470.197 136.176C470.485 136.328 470.815 136.403 471.186 136.403C471.557 136.403 471.887 136.328 472.175 136.176C472.463 136.025 472.705 135.803 472.9 135.51C473.095 135.212 473.244 134.848 473.347 134.418C473.449 133.984 473.5 133.486 473.5 132.924ZM479.499 127.336V138H477.302V127.336H479.499ZM483.747 131.892V133.605H478.898V131.892H483.747ZM484.26 127.336V129.057H478.898V127.336H484.26ZM487.731 127.336V138H485.534V127.336H487.731ZM491.979 131.892V133.605H487.131V131.892H491.979ZM492.492 127.336V129.057H487.131V127.336H492.492ZM429.504 153.209C429.504 153.019 429.475 152.848 429.416 152.697C429.362 152.541 429.26 152.399 429.108 152.272C428.957 152.14 428.745 152.011 428.471 151.884C428.198 151.757 427.844 151.625 427.409 151.488C426.926 151.332 426.467 151.156 426.032 150.961C425.603 150.766 425.222 150.539 424.89 150.28C424.562 150.016 424.304 149.711 424.113 149.364C423.928 149.018 423.835 148.615 423.835 148.156C423.835 147.711 423.933 147.309 424.128 146.947C424.323 146.581 424.597 146.269 424.948 146.01C425.3 145.746 425.715 145.543 426.193 145.402C426.677 145.26 427.207 145.189 427.783 145.189C428.569 145.189 429.255 145.331 429.841 145.614C430.427 145.897 430.881 146.286 431.203 146.779C431.53 147.272 431.694 147.836 431.694 148.471H429.511C429.511 148.158 429.445 147.885 429.313 147.65C429.187 147.411 428.991 147.223 428.728 147.086C428.469 146.95 428.142 146.881 427.746 146.881C427.365 146.881 427.048 146.94 426.794 147.057C426.54 147.169 426.35 147.323 426.223 147.519C426.096 147.709 426.032 147.924 426.032 148.163C426.032 148.344 426.076 148.507 426.164 148.654C426.257 148.8 426.394 148.937 426.574 149.064C426.755 149.191 426.977 149.311 427.241 149.423C427.504 149.535 427.81 149.645 428.156 149.752C428.737 149.928 429.248 150.126 429.687 150.346C430.131 150.565 430.502 150.812 430.8 151.085C431.098 151.359 431.323 151.669 431.474 152.016C431.625 152.362 431.701 152.755 431.701 153.195C431.701 153.659 431.611 154.074 431.43 154.44C431.25 154.806 430.988 155.116 430.646 155.37C430.305 155.624 429.897 155.817 429.423 155.949C428.95 156.081 428.42 156.146 427.834 156.146C427.307 156.146 426.787 156.078 426.274 155.941C425.761 155.8 425.295 155.587 424.875 155.304C424.46 155.021 424.128 154.66 423.879 154.22C423.63 153.781 423.505 153.261 423.505 152.66H425.71C425.71 152.992 425.761 153.273 425.864 153.502C425.966 153.732 426.11 153.917 426.296 154.059C426.486 154.201 426.711 154.303 426.97 154.367C427.233 154.43 427.521 154.462 427.834 154.462C428.215 154.462 428.527 154.408 428.771 154.301C429.021 154.193 429.204 154.044 429.321 153.854C429.443 153.664 429.504 153.449 429.504 153.209ZM440.051 154.286V156H434.682V154.286H440.051ZM435.393 145.336V156H433.195V145.336H435.393ZM448.466 154.286V156H442.79V154.286H448.466ZM443.508 145.336V156H441.311V145.336H443.508ZM447.727 149.679V151.349H442.79V149.679H447.727ZM448.459 145.336V147.057H442.79V145.336H448.459ZM456.904 154.286V156H451.228V154.286H456.904ZM451.945 145.336V156H449.748V145.336H451.945ZM456.164 149.679V151.349H451.228V149.679H456.164ZM456.896 145.336V147.057H451.228V145.336H456.896ZM462.338 152.199H459.621V150.485H462.338C462.758 150.485 463.1 150.417 463.364 150.28C463.627 150.138 463.82 149.943 463.942 149.694C464.064 149.445 464.125 149.164 464.125 148.852C464.125 148.534 464.064 148.239 463.942 147.965C463.82 147.692 463.627 147.472 463.364 147.306C463.1 147.14 462.758 147.057 462.338 147.057H460.383V156H458.186V145.336H462.338C463.173 145.336 463.889 145.487 464.484 145.79C465.085 146.088 465.544 146.5 465.861 147.028C466.179 147.555 466.337 148.158 466.337 148.837C466.337 149.525 466.179 150.121 465.861 150.624C465.544 151.127 465.085 151.515 464.484 151.789C463.889 152.062 463.173 152.199 462.338 152.199Z" fill="#66B0A8"/>
</g>
<g filter="url(#filter5_d_1_168)">
<path d="M336.417 151.163V151.601C336.417 152.304 336.322 152.934 336.131 153.493C335.941 154.051 335.672 154.527 335.325 154.921C334.978 155.31 334.563 155.609 334.081 155.816C333.603 156.023 333.072 156.127 332.488 156.127C331.908 156.127 331.377 156.023 330.895 155.816C330.416 155.609 330.002 155.31 329.65 154.921C329.299 154.527 329.026 154.051 328.832 153.493C328.641 152.934 328.546 152.304 328.546 151.601V151.163C328.546 150.456 328.641 149.826 328.832 149.271C329.022 148.713 329.291 148.237 329.638 147.843C329.989 147.45 330.404 147.149 330.882 146.942C331.364 146.735 331.895 146.631 332.475 146.631C333.059 146.631 333.59 146.735 334.068 146.942C334.551 147.149 334.965 147.45 335.312 147.843C335.664 148.237 335.935 148.713 336.125 149.271C336.32 149.826 336.417 150.456 336.417 151.163ZM334.494 151.601V151.15C334.494 150.66 334.449 150.228 334.36 149.855C334.271 149.483 334.14 149.17 333.967 148.916C333.793 148.662 333.582 148.472 333.332 148.345C333.082 148.214 332.797 148.148 332.475 148.148C332.153 148.148 331.868 148.214 331.618 148.345C331.373 148.472 331.163 148.662 330.99 148.916C330.82 149.17 330.691 149.483 330.603 149.855C330.514 150.228 330.469 150.66 330.469 151.15V151.601C330.469 152.088 330.514 152.519 330.603 152.896C330.691 153.268 330.823 153.584 330.996 153.842C331.17 154.096 331.381 154.288 331.631 154.419C331.881 154.551 332.166 154.616 332.488 154.616C332.809 154.616 333.095 154.551 333.345 154.419C333.594 154.288 333.804 154.096 333.973 153.842C334.142 153.584 334.271 153.268 334.36 152.896C334.449 152.519 334.494 152.088 334.494 151.601ZM339.692 146.758V156H337.788V146.758H339.692ZM343.374 150.706V152.191H339.172V150.706H343.374ZM343.818 146.758V148.25H339.172V146.758H343.818ZM346.827 146.758V156H344.923V146.758H346.827ZM350.509 150.706V152.191H346.307V150.706H350.509ZM350.953 146.758V148.25H346.307V146.758H350.953ZM362.887 151.163V151.601C362.887 152.304 362.792 152.934 362.601 153.493C362.411 154.051 362.142 154.527 361.795 154.921C361.448 155.31 361.033 155.609 360.551 155.816C360.073 156.023 359.542 156.127 358.958 156.127C358.378 156.127 357.847 156.023 357.364 155.816C356.886 155.609 356.471 155.31 356.12 154.921C355.769 154.527 355.496 154.051 355.301 153.493C355.111 152.934 355.016 152.304 355.016 151.601V151.163C355.016 150.456 355.111 149.826 355.301 149.271C355.492 148.713 355.76 148.237 356.107 147.843C356.459 147.45 356.873 147.149 357.352 146.942C357.834 146.735 358.365 146.631 358.945 146.631C359.529 146.631 360.06 146.735 360.538 146.942C361.021 147.149 361.435 147.45 361.782 147.843C362.133 148.237 362.404 148.713 362.595 149.271C362.789 149.826 362.887 150.456 362.887 151.163ZM360.963 151.601V151.15C360.963 150.66 360.919 150.228 360.83 149.855C360.741 149.483 360.61 149.17 360.437 148.916C360.263 148.662 360.051 148.472 359.802 148.345C359.552 148.214 359.266 148.148 358.945 148.148C358.623 148.148 358.338 148.214 358.088 148.345C357.842 148.472 357.633 148.662 357.459 148.916C357.29 149.17 357.161 149.483 357.072 149.855C356.983 150.228 356.939 150.66 356.939 151.15V151.601C356.939 152.088 356.983 152.519 357.072 152.896C357.161 153.268 357.292 153.584 357.466 153.842C357.639 154.096 357.851 154.288 358.101 154.419C358.35 154.551 358.636 154.616 358.958 154.616C359.279 154.616 359.565 154.551 359.814 154.419C360.064 154.288 360.274 154.096 360.443 153.842C360.612 153.584 360.741 153.268 360.83 152.896C360.919 152.519 360.963 152.088 360.963 151.601ZM371.78 146.758V156H369.875L366.162 149.805V156H364.258V146.758H366.162L369.882 152.959V146.758H371.78Z" fill="#66B0A8"/>
</g>
<g filter="url(#filter6_d_1_168)">
<path d="M262.637 132.582C262.637 132.417 262.611 132.268 262.561 132.137C262.514 132.002 262.425 131.879 262.294 131.769C262.163 131.655 261.979 131.543 261.742 131.433C261.505 131.323 261.198 131.208 260.821 131.09C260.402 130.954 260.005 130.802 259.628 130.633C259.256 130.464 258.925 130.267 258.638 130.042C258.354 129.814 258.13 129.549 257.965 129.249C257.804 128.949 257.724 128.599 257.724 128.202C257.724 127.817 257.808 127.467 257.978 127.154C258.147 126.837 258.384 126.566 258.688 126.342C258.993 126.113 259.353 125.938 259.768 125.815C260.187 125.692 260.646 125.631 261.145 125.631C261.826 125.631 262.421 125.754 262.929 125.999C263.437 126.244 263.83 126.581 264.109 127.008C264.393 127.436 264.535 127.924 264.535 128.475H262.643C262.643 128.204 262.586 127.967 262.472 127.764C262.362 127.556 262.192 127.393 261.964 127.275C261.74 127.156 261.456 127.097 261.113 127.097C260.783 127.097 260.508 127.148 260.288 127.25C260.068 127.347 259.903 127.48 259.793 127.649C259.683 127.814 259.628 128.001 259.628 128.208C259.628 128.365 259.666 128.506 259.742 128.633C259.823 128.76 259.941 128.879 260.098 128.989C260.254 129.099 260.447 129.202 260.675 129.3C260.904 129.397 261.168 129.492 261.469 129.585C261.972 129.738 262.415 129.909 262.795 130.1C263.181 130.29 263.502 130.504 263.76 130.741C264.018 130.978 264.213 131.246 264.344 131.547C264.475 131.847 264.541 132.188 264.541 132.569C264.541 132.971 264.463 133.331 264.306 133.648C264.15 133.965 263.923 134.234 263.627 134.454C263.331 134.674 262.977 134.841 262.567 134.956C262.156 135.07 261.697 135.127 261.189 135.127C260.732 135.127 260.282 135.068 259.837 134.949C259.393 134.826 258.989 134.642 258.625 134.397C258.265 134.152 257.978 133.838 257.762 133.458C257.546 133.077 257.438 132.626 257.438 132.105H259.349C259.349 132.393 259.393 132.637 259.482 132.835C259.571 133.034 259.696 133.195 259.856 133.318C260.021 133.441 260.216 133.529 260.44 133.584C260.669 133.639 260.919 133.667 261.189 133.667C261.52 133.667 261.79 133.62 262.002 133.527C262.218 133.434 262.376 133.305 262.478 133.14C262.584 132.975 262.637 132.789 262.637 132.582ZM269.968 125.758V135H268.07V125.758H269.968ZM272.812 125.758V127.25H265.271V125.758H272.812Z" fill="#66B0A8"/>
</g>
<g filter="url(#filter7_d_1_168)">
<path d="M112.825 131.758H116.272C116.979 131.758 117.586 131.864 118.094 132.075C118.606 132.287 118.999 132.6 119.274 133.015C119.549 133.429 119.687 133.939 119.687 134.544C119.687 135.04 119.602 135.465 119.433 135.82C119.268 136.172 119.033 136.466 118.729 136.703C118.428 136.935 118.075 137.122 117.668 137.261L117.065 137.579H114.069L114.057 136.093H116.285C116.619 136.093 116.896 136.034 117.116 135.916C117.336 135.797 117.501 135.632 117.611 135.42C117.726 135.209 117.783 134.963 117.783 134.684C117.783 134.388 117.728 134.132 117.618 133.916C117.508 133.7 117.34 133.535 117.116 133.421C116.892 133.307 116.611 133.25 116.272 133.25H114.729V141H112.825V131.758ZM117.992 141L115.885 136.88L117.897 136.868L120.03 140.911V141H117.992ZM127.355 139.515V141H122.436V139.515H127.355ZM123.058 131.758V141H121.153V131.758H123.058ZM126.714 135.522V136.969H122.436V135.522H126.714ZM127.349 131.758V133.25H122.436V131.758H127.349ZM133.823 137.934H135.721C135.683 138.556 135.512 139.108 135.207 139.591C134.907 140.073 134.486 140.45 133.944 140.721C133.406 140.992 132.759 141.127 132.001 141.127C131.409 141.127 130.878 141.025 130.408 140.822C129.938 140.615 129.536 140.319 129.202 139.934C128.872 139.549 128.62 139.083 128.447 138.537C128.273 137.991 128.187 137.38 128.187 136.703V136.062C128.187 135.384 128.275 134.773 128.453 134.227C128.635 133.677 128.893 133.209 129.228 132.824C129.566 132.439 129.97 132.143 130.44 131.936C130.91 131.728 131.434 131.625 132.014 131.625C132.784 131.625 133.434 131.764 133.963 132.043C134.496 132.323 134.909 132.708 135.201 133.199C135.497 133.69 135.675 134.248 135.734 134.875H133.83C133.808 134.502 133.734 134.187 133.607 133.929C133.48 133.666 133.288 133.47 133.03 133.338C132.776 133.203 132.437 133.135 132.014 133.135C131.697 133.135 131.42 133.194 131.183 133.313C130.946 133.431 130.747 133.611 130.586 133.853C130.425 134.094 130.305 134.398 130.224 134.767C130.148 135.131 130.11 135.558 130.11 136.049V136.703C130.11 137.181 130.146 137.602 130.218 137.966C130.29 138.326 130.4 138.63 130.548 138.88C130.7 139.125 130.895 139.312 131.132 139.438C131.373 139.561 131.663 139.623 132.001 139.623C132.399 139.623 132.727 139.559 132.985 139.432C133.243 139.305 133.44 139.117 133.576 138.867C133.715 138.618 133.798 138.306 133.823 137.934Z" fill="#B47700"/>
</g>
<g filter="url(#filter8_d_1_168)">
<path d="M180.203 131.758H181.815L184.189 138.543L186.563 131.758H188.175L184.836 141H183.542L180.203 131.758ZM179.333 131.758H180.939L181.231 138.372V141H179.333V131.758ZM187.439 131.758H189.051V141H187.147V138.372L187.439 131.758ZM198.312 136.163V136.601C198.312 137.304 198.217 137.934 198.027 138.493C197.836 139.051 197.568 139.527 197.221 139.921C196.874 140.31 196.459 140.609 195.977 140.816C195.498 141.023 194.967 141.127 194.383 141.127C193.804 141.127 193.272 141.023 192.79 140.816C192.312 140.609 191.897 140.31 191.546 139.921C191.195 139.527 190.922 139.051 190.727 138.493C190.537 137.934 190.441 137.304 190.441 136.601V136.163C190.441 135.456 190.537 134.826 190.727 134.271C190.917 133.713 191.186 133.237 191.533 132.843C191.884 132.45 192.299 132.149 192.777 131.942C193.26 131.735 193.791 131.631 194.371 131.631C194.955 131.631 195.486 131.735 195.964 131.942C196.446 132.149 196.861 132.45 197.208 132.843C197.559 133.237 197.83 133.713 198.021 134.271C198.215 134.826 198.312 135.456 198.312 136.163ZM196.389 136.601V136.15C196.389 135.66 196.345 135.228 196.256 134.855C196.167 134.483 196.036 134.17 195.862 133.916C195.689 133.662 195.477 133.472 195.228 133.345C194.978 133.214 194.692 133.148 194.371 133.148C194.049 133.148 193.763 133.214 193.514 133.345C193.268 133.472 193.059 133.662 192.885 133.916C192.716 134.17 192.587 134.483 192.498 134.855C192.409 135.228 192.365 135.66 192.365 136.15V136.601C192.365 137.088 192.409 137.519 192.498 137.896C192.587 138.268 192.718 138.584 192.892 138.842C193.065 139.096 193.277 139.288 193.526 139.419C193.776 139.551 194.062 139.616 194.383 139.616C194.705 139.616 194.991 139.551 195.24 139.419C195.49 139.288 195.699 139.096 195.869 138.842C196.038 138.584 196.167 138.268 196.256 137.896C196.345 137.519 196.389 137.088 196.389 136.601ZM207.206 131.758V141H205.301L201.588 134.805V141H199.684V131.758H201.588L205.308 137.959V131.758H207.206ZM216.454 136.163V136.601C216.454 137.304 216.359 137.934 216.168 138.493C215.978 139.051 215.709 139.527 215.362 139.921C215.015 140.31 214.601 140.609 214.118 140.816C213.64 141.023 213.109 141.127 212.525 141.127C211.945 141.127 211.414 141.023 210.932 140.816C210.453 140.609 210.039 140.31 209.688 139.921C209.336 139.527 209.063 139.051 208.869 138.493C208.678 137.934 208.583 137.304 208.583 136.601V136.163C208.583 135.456 208.678 134.826 208.869 134.271C209.059 133.713 209.328 133.237 209.675 132.843C210.026 132.45 210.441 132.149 210.919 131.942C211.401 131.735 211.932 131.631 212.512 131.631C213.096 131.631 213.627 131.735 214.105 131.942C214.588 132.149 215.003 132.45 215.35 132.843C215.701 133.237 215.972 133.713 216.162 134.271C216.357 134.826 216.454 135.456 216.454 136.163ZM214.531 136.601V136.15C214.531 135.66 214.486 135.228 214.397 134.855C214.309 134.483 214.177 134.17 214.004 133.916C213.83 133.662 213.619 133.472 213.369 133.345C213.119 133.214 212.834 133.148 212.512 133.148C212.191 133.148 211.905 133.214 211.655 133.345C211.41 133.472 211.2 133.662 211.027 133.916C210.858 134.17 210.729 134.483 210.64 134.855C210.551 135.228 210.506 135.66 210.506 136.15V136.601C210.506 137.088 210.551 137.519 210.64 137.896C210.729 138.268 210.86 138.584 211.033 138.842C211.207 139.096 211.418 139.288 211.668 139.419C211.918 139.551 212.203 139.616 212.525 139.616C212.847 139.616 213.132 139.551 213.382 139.419C213.632 139.288 213.841 139.096 214.01 138.842C214.18 138.584 214.309 138.268 214.397 137.896C214.486 137.519 214.531 137.088 214.531 136.601ZM192.796 152.706H190.441V151.22H192.796C193.16 151.22 193.457 151.161 193.685 151.042C193.914 150.92 194.081 150.75 194.187 150.535C194.292 150.319 194.345 150.076 194.345 149.805C194.345 149.53 194.292 149.274 194.187 149.037C194.081 148.8 193.914 148.609 193.685 148.465C193.457 148.321 193.16 148.25 192.796 148.25H191.102V156H189.197V146.758H192.796C193.52 146.758 194.14 146.889 194.656 147.151C195.177 147.41 195.575 147.767 195.85 148.224C196.125 148.681 196.262 149.204 196.262 149.792C196.262 150.389 196.125 150.905 195.85 151.341C195.575 151.777 195.177 152.113 194.656 152.35C194.14 152.587 193.52 152.706 192.796 152.706ZM204.901 151.169V154.832C204.757 155.006 204.535 155.194 204.235 155.397C203.934 155.596 203.547 155.767 203.073 155.911C202.599 156.055 202.026 156.127 201.353 156.127C200.756 156.127 200.213 156.03 199.722 155.835C199.231 155.636 198.808 155.346 198.452 154.965C198.101 154.584 197.83 154.119 197.64 153.569C197.449 153.014 197.354 152.382 197.354 151.671V151.093C197.354 150.382 197.445 149.75 197.627 149.195C197.813 148.641 198.078 148.173 198.42 147.792C198.763 147.412 199.172 147.122 199.646 146.923C200.119 146.724 200.646 146.625 201.226 146.625C202.03 146.625 202.69 146.756 203.207 147.018C203.723 147.276 204.116 147.636 204.387 148.097C204.662 148.554 204.832 149.079 204.895 149.671H203.048C203.001 149.358 202.912 149.085 202.781 148.853C202.65 148.62 202.462 148.438 202.216 148.307C201.975 148.175 201.662 148.11 201.277 148.11C200.959 148.11 200.676 148.175 200.426 148.307C200.181 148.434 199.973 148.622 199.804 148.872C199.635 149.121 199.506 149.43 199.417 149.798C199.328 150.167 199.284 150.594 199.284 151.081V151.671C199.284 152.153 199.33 152.581 199.423 152.953C199.516 153.321 199.654 153.632 199.836 153.886C200.022 154.136 200.251 154.324 200.521 154.451C200.792 154.578 201.108 154.642 201.467 154.642C201.768 154.642 202.017 154.616 202.216 154.565C202.419 154.515 202.582 154.453 202.705 154.381C202.832 154.305 202.929 154.233 202.997 154.166V152.528H201.258V151.169H204.901ZM207.307 146.758H208.919L211.293 153.543L213.667 146.758H215.28L211.941 156H210.646L207.307 146.758ZM206.438 146.758H208.043L208.335 153.372V156H206.438V146.758ZM214.543 146.758H216.156V156H214.251V153.372L214.543 146.758Z" fill="#66B0A8"/>
</g>
<g filter="url(#filter9_d_1_168)">
<path d="M138.863 146.758H142.31C143.017 146.758 143.624 146.864 144.132 147.075C144.644 147.287 145.037 147.6 145.312 148.015C145.588 148.429 145.725 148.939 145.725 149.544C145.725 150.04 145.64 150.465 145.471 150.82C145.306 151.172 145.071 151.466 144.767 151.703C144.466 151.935 144.113 152.122 143.707 152.261L143.104 152.579H140.107L140.095 151.093H142.323C142.657 151.093 142.934 151.034 143.154 150.916C143.374 150.797 143.539 150.632 143.649 150.42C143.764 150.209 143.821 149.963 143.821 149.684C143.821 149.388 143.766 149.132 143.656 148.916C143.546 148.7 143.379 148.535 143.154 148.421C142.93 148.307 142.649 148.25 142.31 148.25H140.768V156H138.863V146.758ZM144.03 156L141.923 151.88L143.935 151.868L146.068 155.911V156H144.03ZM154.713 146.758V156H152.809L149.096 149.805V156H147.191V146.758H149.096L152.815 152.959V146.758H154.713ZM159.208 156H157.195L157.208 154.515H159.208C159.707 154.515 160.128 154.403 160.471 154.178C160.813 153.95 161.072 153.618 161.245 153.182C161.423 152.746 161.512 152.219 161.512 151.601V151.15C161.512 150.676 161.461 150.26 161.359 149.9C161.262 149.54 161.116 149.238 160.921 148.992C160.727 148.747 160.488 148.563 160.204 148.44C159.921 148.313 159.595 148.25 159.227 148.25H157.157V146.758H159.227C159.844 146.758 160.409 146.864 160.921 147.075C161.438 147.283 161.884 147.581 162.261 147.97C162.637 148.36 162.927 148.825 163.13 149.367C163.338 149.904 163.441 150.503 163.441 151.163V151.601C163.441 152.257 163.338 152.856 163.13 153.397C162.927 153.939 162.637 154.405 162.261 154.794C161.888 155.179 161.442 155.477 160.921 155.689C160.405 155.896 159.834 156 159.208 156ZM158.274 146.758V156H156.37V146.758H158.274Z" fill="#66B0A8"/>
</g>
<g filter="url(#filter10_d_1_168)">
<path d="M38.166 40.5815C38.166 40.4165 38.1406 40.2684 38.0898 40.1372C38.0433 40.0018 37.9544 39.8791 37.8232 39.769C37.6921 39.6548 37.508 39.5426 37.271 39.4326C37.034 39.3226 36.7272 39.2083 36.3506 39.0898C35.9316 38.9544 35.5339 38.8021 35.1572 38.6328C34.7848 38.4635 34.4548 38.2668 34.167 38.0425C33.8835 37.814 33.6592 37.5495 33.4941 37.249C33.3333 36.9486 33.2529 36.5994 33.2529 36.2017C33.2529 35.8166 33.3376 35.4674 33.5068 35.1543C33.6761 34.8369 33.9131 34.5661 34.2178 34.3418C34.5225 34.1133 34.8822 33.9377 35.2969 33.8149C35.7158 33.6922 36.175 33.6309 36.6743 33.6309C37.3556 33.6309 37.9502 33.7536 38.458 33.999C38.9658 34.2445 39.3594 34.5809 39.6387 35.0083C39.9222 35.4357 40.064 35.9245 40.064 36.4746H38.1724C38.1724 36.2038 38.1152 35.9668 38.001 35.7637C37.891 35.5563 37.7217 35.3934 37.4932 35.2749C37.2689 35.1564 36.9854 35.0972 36.6426 35.0972C36.3125 35.0972 36.0374 35.1479 35.8174 35.2495C35.5973 35.3468 35.4323 35.4801 35.3223 35.6494C35.2122 35.8145 35.1572 36.0007 35.1572 36.208C35.1572 36.3646 35.1953 36.5063 35.2715 36.6333C35.3519 36.7603 35.4704 36.8787 35.627 36.9888C35.7835 37.0988 35.9761 37.2025 36.2046 37.2998C36.4331 37.3971 36.6976 37.4924 36.998 37.5854C37.5016 37.7378 37.9438 37.9092 38.3247 38.0996C38.7098 38.29 39.0314 38.5037 39.2896 38.7407C39.5477 38.9777 39.7424 39.2464 39.8735 39.5469C40.0047 39.8473 40.0703 40.188 40.0703 40.5688C40.0703 40.9709 39.992 41.3306 39.8354 41.6479C39.6789 41.9653 39.4525 42.234 39.1562 42.4541C38.86 42.6742 38.5067 42.8413 38.0962 42.9556C37.6857 43.0698 37.2266 43.127 36.7188 43.127C36.2617 43.127 35.811 43.0677 35.3667 42.9492C34.9224 42.8265 34.5182 42.6424 34.1543 42.397C33.7946 42.1515 33.5068 41.8384 33.291 41.4575C33.0752 41.0767 32.9673 40.626 32.9673 40.1055H34.8779C34.8779 40.3932 34.9224 40.6366 35.0112 40.8354C35.1001 41.0343 35.2249 41.1951 35.3857 41.3179C35.5508 41.4406 35.7454 41.5295 35.9697 41.5845C36.1982 41.6395 36.4479 41.667 36.7188 41.667C37.0488 41.667 37.3197 41.6204 37.5312 41.5273C37.7471 41.4342 37.9058 41.3052 38.0073 41.1401C38.1131 40.9751 38.166 40.7889 38.166 40.5815ZM41.3398 42.1177C41.3398 41.8468 41.4329 41.6204 41.6191 41.4385C41.8096 41.2565 42.0614 41.1655 42.3745 41.1655C42.6877 41.1655 42.9373 41.2565 43.1235 41.4385C43.314 41.6204 43.4092 41.8468 43.4092 42.1177C43.4092 42.3885 43.314 42.6149 43.1235 42.7969C42.9373 42.9788 42.6877 43.0698 42.3745 43.0698C42.0614 43.0698 41.8096 42.9788 41.6191 42.7969C41.4329 42.6149 41.3398 42.3885 41.3398 42.1177ZM49.9473 40.5815C49.9473 40.4165 49.9219 40.2684 49.8711 40.1372C49.8245 40.0018 49.7357 39.8791 49.6045 39.769C49.4733 39.6548 49.2892 39.5426 49.0522 39.4326C48.8153 39.3226 48.5085 39.2083 48.1318 39.0898C47.7129 38.9544 47.3151 38.8021 46.9385 38.6328C46.5661 38.4635 46.236 38.2668 45.9482 38.0425C45.6647 37.814 45.4404 37.5495 45.2754 37.249C45.1146 36.9486 45.0342 36.5994 45.0342 36.2017C45.0342 35.8166 45.1188 35.4674 45.2881 35.1543C45.4574 34.8369 45.6943 34.5661 45.999 34.3418C46.3037 34.1133 46.6634 33.9377 47.0781 33.8149C47.4971 33.6922 47.9562 33.6309 48.4556 33.6309C49.1369 33.6309 49.7314 33.7536 50.2393 33.999C50.7471 34.2445 51.1406 34.5809 51.4199 35.0083C51.7035 35.4357 51.8452 35.9245 51.8452 36.4746H49.9536C49.9536 36.2038 49.8965 35.9668 49.7822 35.7637C49.6722 35.5563 49.5029 35.3934 49.2744 35.2749C49.0501 35.1564 48.7666 35.0972 48.4238 35.0972C48.0938 35.0972 47.8187 35.1479 47.5986 35.2495C47.3786 35.3468 47.2135 35.4801 47.1035 35.6494C46.9935 35.8145 46.9385 36.0007 46.9385 36.208C46.9385 36.3646 46.9766 36.5063 47.0527 36.6333C47.1331 36.7603 47.2516 36.8787 47.4082 36.9888C47.5648 37.0988 47.7573 37.2025 47.9858 37.2998C48.2144 37.3971 48.4788 37.4924 48.7793 37.5854C49.2829 37.7378 49.7251 37.9092 50.106 38.0996C50.491 38.29 50.8127 38.5037 51.0708 38.7407C51.3289 38.9777 51.5236 39.2464 51.6548 39.5469C51.786 39.8473 51.8516 40.188 51.8516 40.5688C51.8516 40.9709 51.7733 41.3306 51.6167 41.6479C51.4601 41.9653 51.2337 42.234 50.9375 42.4541C50.6413 42.6742 50.2879 42.8413 49.8774 42.9556C49.467 43.0698 49.0078 43.127 48.5 43.127C48.043 43.127 47.5923 43.0677 47.1479 42.9492C46.7036 42.8265 46.2995 42.6424 45.9355 42.397C45.5758 42.1515 45.2881 41.8384 45.0723 41.4575C44.8564 41.0767 44.7485 40.626 44.7485 40.1055H46.6592C46.6592 40.3932 46.7036 40.6366 46.7925 40.8354C46.8813 41.0343 47.0062 41.1951 47.167 41.3179C47.332 41.4406 47.5267 41.5295 47.751 41.5845C47.9795 41.6395 48.2292 41.667 48.5 41.667C48.8301 41.667 49.1009 41.6204 49.3125 41.5273C49.5283 41.4342 49.687 41.3052 49.7886 41.1401C49.8944 40.9751 49.9473 40.7889 49.9473 40.5815ZM60.7383 38.1631V38.6011C60.7383 39.3035 60.6431 39.9341 60.4526 40.4927C60.2622 41.0513 59.9935 41.5273 59.6465 41.9209C59.2995 42.3102 58.8848 42.6086 58.4023 42.8159C57.9242 43.0233 57.3931 43.127 56.8091 43.127C56.2293 43.127 55.6982 43.0233 55.2158 42.8159C54.7376 42.6086 54.3229 42.3102 53.9717 41.9209C53.6204 41.5273 53.3475 41.0513 53.1528 40.4927C52.9624 39.9341 52.8672 39.3035 52.8672 38.6011V38.1631C52.8672 37.4564 52.9624 36.8258 53.1528 36.2715C53.3433 35.7129 53.612 35.2368 53.959 34.8433C54.3102 34.4497 54.7249 34.1493 55.2031 33.9419C55.6855 33.7345 56.2166 33.6309 56.7964 33.6309C57.3804 33.6309 57.9115 33.7345 58.3896 33.9419C58.8721 34.1493 59.2868 34.4497 59.6338 34.8433C59.985 35.2368 60.2559 35.7129 60.4463 36.2715C60.641 36.8258 60.7383 37.4564 60.7383 38.1631ZM58.8149 38.6011V38.1504C58.8149 37.6595 58.7705 37.2279 58.6816 36.8555C58.5928 36.4831 58.4616 36.1699 58.2881 35.916C58.1146 35.6621 57.903 35.4717 57.6533 35.3447C57.4036 35.2135 57.118 35.1479 56.7964 35.1479C56.4748 35.1479 56.1891 35.2135 55.9395 35.3447C55.694 35.4717 55.4845 35.6621 55.311 35.916C55.1418 36.1699 55.0127 36.4831 54.9238 36.8555C54.835 37.2279 54.7905 37.6595 54.7905 38.1504V38.6011C54.7905 39.0877 54.835 39.5194 54.9238 39.896C55.0127 40.2684 55.1439 40.5837 55.3174 40.8418C55.4909 41.0957 55.7025 41.2882 55.9521 41.4194C56.2018 41.5506 56.4875 41.6162 56.8091 41.6162C57.1307 41.6162 57.4163 41.5506 57.666 41.4194C57.9157 41.2882 58.1252 41.0957 58.2944 40.8418C58.4637 40.5837 58.5928 40.2684 58.6816 39.896C58.7705 39.5194 58.8149 39.0877 58.8149 38.6011ZM67.2129 33.7578H69.1108V39.8643C69.1108 40.5752 68.9585 41.174 68.6538 41.6606C68.3534 42.1473 67.9365 42.5133 67.4033 42.7588C66.8743 43.0042 66.265 43.127 65.5752 43.127C64.8854 43.127 64.2718 43.0042 63.7344 42.7588C63.2012 42.5133 62.7822 42.1473 62.4775 41.6606C62.1771 41.174 62.0269 40.5752 62.0269 39.8643V33.7578H63.9312V39.8643C63.9312 40.279 63.9967 40.6175 64.1279 40.8799C64.2591 41.1423 64.4474 41.3348 64.6929 41.4575C64.9425 41.5802 65.2367 41.6416 65.5752 41.6416C65.9222 41.6416 66.2163 41.5802 66.4575 41.4575C66.703 41.3348 66.8892 41.1423 67.0161 40.8799C67.1473 40.6175 67.2129 40.279 67.2129 39.8643V33.7578ZM78.2007 33.7578V43H76.2964L72.583 36.8047V43H70.6787V33.7578H72.583L76.3027 39.9595V33.7578H78.2007ZM82.6948 43H80.6826L80.6953 41.5146H82.6948C83.1942 41.5146 83.6152 41.4025 83.958 41.1782C84.3008 40.9497 84.5589 40.6175 84.7324 40.1816C84.9102 39.7458 84.999 39.2189 84.999 38.6011V38.1504C84.999 37.6764 84.9482 37.2596 84.8467 36.8999C84.7493 36.5402 84.6034 36.2376 84.4087 35.9922C84.214 35.7467 83.9749 35.5627 83.6914 35.4399C83.4079 35.313 83.082 35.2495 82.7139 35.2495H80.6445V33.7578H82.7139C83.3317 33.7578 83.8966 33.8636 84.4087 34.0752C84.925 34.2826 85.3714 34.5809 85.748 34.9702C86.1247 35.3595 86.4146 35.825 86.6177 36.3667C86.825 36.9041 86.9287 37.5029 86.9287 38.1631V38.6011C86.9287 39.257 86.825 39.8558 86.6177 40.3975C86.4146 40.9391 86.1247 41.4046 85.748 41.7939C85.3757 42.179 84.9292 42.4774 84.4087 42.689C83.8924 42.8963 83.3211 43 82.6948 43ZM81.7617 33.7578V43H79.8574V33.7578H81.7617ZM97.7515 41.5146V43H92.832V41.5146H97.7515ZM93.4541 33.7578V43H91.5498V33.7578H93.4541ZM97.1104 37.522V38.9692H92.832V37.522H97.1104ZM97.7451 33.7578V35.2495H92.832V33.7578H97.7451ZM103.883 41.6289L106.384 43.6094L105.185 44.6504L102.722 42.6699L103.883 41.6289ZM106.448 38.1631V38.6011C106.448 39.3035 106.353 39.9341 106.162 40.4927C105.976 41.0513 105.707 41.5273 105.356 41.9209C105.005 42.3102 104.59 42.6086 104.112 42.8159C103.634 43.0233 103.103 43.127 102.519 43.127C101.939 43.127 101.408 43.0233 100.925 42.8159C100.443 42.6086 100.026 42.3102 99.6748 41.9209C99.3236 41.5273 99.0506 41.0513 98.856 40.4927C98.6655 39.9341 98.5703 39.3035 98.5703 38.6011V38.1631C98.5703 37.4564 98.6655 36.8258 98.856 36.2715C99.0506 35.7129 99.3215 35.2368 99.6685 34.8433C100.015 34.4497 100.43 34.1493 100.913 33.9419C101.395 33.7345 101.926 33.6309 102.506 33.6309C103.09 33.6309 103.621 33.7345 104.099 33.9419C104.582 34.1493 104.998 34.4497 105.35 34.8433C105.701 35.2368 105.972 35.7129 106.162 36.2715C106.353 36.8258 106.448 37.4564 106.448 38.1631ZM104.524 38.6011V38.1504C104.524 37.6595 104.478 37.2279 104.385 36.8555C104.296 36.4831 104.165 36.1699 103.991 35.916C103.822 35.6621 103.612 35.4717 103.363 35.3447C103.113 35.2135 102.827 35.1479 102.506 35.1479C102.184 35.1479 101.899 35.2135 101.649 35.3447C101.399 35.4717 101.19 35.6621 101.021 35.916C100.851 36.1699 100.722 36.4831 100.633 36.8555C100.544 37.2279 100.5 37.6595 100.5 38.1504V38.6011C100.5 39.0877 100.544 39.5194 100.633 39.896C100.722 40.2684 100.851 40.5837 101.021 40.8418C101.194 41.0957 101.406 41.2882 101.655 41.4194C101.909 41.5506 102.197 41.6162 102.519 41.6162C102.84 41.6162 103.124 41.5506 103.369 41.4194C103.619 41.2882 103.828 41.0957 103.998 40.8418C104.171 40.5837 104.302 40.2684 104.391 39.896C104.48 39.5194 104.524 39.0877 104.524 38.6011Z" fill="#66B0A8"/>
</g>
<g filter="url(#filter11_d_1_168)">
<path d="M59.0625 148.338L56.5488 156H54.5239L57.958 146.758H59.2466L59.0625 148.338ZM61.1509 156L58.6309 148.338L58.4277 146.758H59.729L63.1821 156H61.1509ZM61.0366 152.56V154.051H56.1553V152.56H61.0366ZM69.9805 154.515V156H65.3276V154.515H69.9805ZM65.9434 146.758V156H64.0391V146.758H65.9434ZM77.0137 154.515V156H72.3608V154.515H77.0137ZM72.9766 146.758V156H71.0723V146.758H72.9766ZM85.6084 146.739V156H83.7803V148.846L81.584 149.544V148.104L85.4116 146.739H85.6084ZM94.8823 156H92.8701L92.8828 154.515H94.8823C95.3817 154.515 95.8027 154.403 96.1455 154.178C96.4883 153.95 96.7464 153.618 96.9199 153.182C97.0977 152.746 97.1865 152.219 97.1865 151.601V151.15C97.1865 150.676 97.1357 150.26 97.0342 149.9C96.9368 149.54 96.7909 149.238 96.5962 148.992C96.4015 148.747 96.1624 148.563 95.8789 148.44C95.5954 148.313 95.2695 148.25 94.9014 148.25H92.832V146.758H94.9014C95.5192 146.758 96.0841 146.864 96.5962 147.075C97.1125 147.283 97.5589 147.581 97.9355 147.97C98.3122 148.36 98.6021 148.825 98.8052 149.367C99.0125 149.904 99.1162 150.503 99.1162 151.163V151.601C99.1162 152.257 99.0125 152.856 98.8052 153.397C98.6021 153.939 98.3122 154.405 97.9355 154.794C97.5632 155.179 97.1167 155.477 96.5962 155.689C96.0799 155.896 95.5086 156 94.8823 156ZM93.9492 146.758V156H92.0449V146.758H93.9492ZM102.525 146.758V156H100.627V146.758H102.525ZM109.12 153.582C109.12 153.417 109.095 153.268 109.044 153.137C108.997 153.002 108.909 152.879 108.777 152.769C108.646 152.655 108.462 152.543 108.225 152.433C107.988 152.323 107.681 152.208 107.305 152.09C106.886 151.954 106.488 151.802 106.111 151.633C105.739 151.464 105.409 151.267 105.121 151.042C104.838 150.814 104.613 150.549 104.448 150.249C104.287 149.949 104.207 149.599 104.207 149.202C104.207 148.817 104.292 148.467 104.461 148.154C104.63 147.837 104.867 147.566 105.172 147.342C105.477 147.113 105.836 146.938 106.251 146.815C106.67 146.692 107.129 146.631 107.628 146.631C108.31 146.631 108.904 146.754 109.412 146.999C109.92 147.244 110.313 147.581 110.593 148.008C110.876 148.436 111.018 148.924 111.018 149.475H109.126C109.126 149.204 109.069 148.967 108.955 148.764C108.845 148.556 108.676 148.393 108.447 148.275C108.223 148.156 107.939 148.097 107.597 148.097C107.267 148.097 106.992 148.148 106.771 148.25C106.551 148.347 106.386 148.48 106.276 148.649C106.166 148.814 106.111 149.001 106.111 149.208C106.111 149.365 106.149 149.506 106.226 149.633C106.306 149.76 106.424 149.879 106.581 149.989C106.738 150.099 106.93 150.202 107.159 150.3C107.387 150.397 107.652 150.492 107.952 150.585C108.456 150.738 108.898 150.909 109.279 151.1C109.664 151.29 109.986 151.504 110.244 151.741C110.502 151.978 110.696 152.246 110.828 152.547C110.959 152.847 111.024 153.188 111.024 153.569C111.024 153.971 110.946 154.331 110.79 154.648C110.633 154.965 110.407 155.234 110.11 155.454C109.814 155.674 109.461 155.841 109.05 155.956C108.64 156.07 108.181 156.127 107.673 156.127C107.216 156.127 106.765 156.068 106.321 155.949C105.876 155.826 105.472 155.642 105.108 155.397C104.749 155.152 104.461 154.838 104.245 154.458C104.029 154.077 103.921 153.626 103.921 153.105H105.832C105.832 153.393 105.876 153.637 105.965 153.835C106.054 154.034 106.179 154.195 106.34 154.318C106.505 154.441 106.7 154.529 106.924 154.584C107.152 154.639 107.402 154.667 107.673 154.667C108.003 154.667 108.274 154.62 108.485 154.527C108.701 154.434 108.86 154.305 108.961 154.14C109.067 153.975 109.12 153.789 109.12 153.582ZM117.677 152.934H119.575C119.537 153.556 119.365 154.108 119.061 154.591C118.76 155.073 118.339 155.45 117.797 155.721C117.26 155.992 116.612 156.127 115.855 156.127C115.263 156.127 114.731 156.025 114.262 155.822C113.792 155.615 113.39 155.319 113.056 154.934C112.726 154.549 112.474 154.083 112.3 153.537C112.127 152.991 112.04 152.38 112.04 151.703V151.062C112.04 150.384 112.129 149.773 112.307 149.227C112.489 148.677 112.747 148.209 113.081 147.824C113.42 147.439 113.824 147.143 114.293 146.936C114.763 146.728 115.288 146.625 115.868 146.625C116.638 146.625 117.287 146.764 117.816 147.043C118.35 147.323 118.762 147.708 119.054 148.199C119.35 148.69 119.528 149.248 119.587 149.875H117.683C117.662 149.502 117.588 149.187 117.461 148.929C117.334 148.666 117.141 148.47 116.883 148.338C116.629 148.203 116.291 148.135 115.868 148.135C115.55 148.135 115.273 148.194 115.036 148.313C114.799 148.431 114.6 148.611 114.439 148.853C114.279 149.094 114.158 149.398 114.078 149.767C114.001 150.131 113.963 150.558 113.963 151.049V151.703C113.963 152.181 113.999 152.602 114.071 152.966C114.143 153.326 114.253 153.63 114.401 153.88C114.554 154.125 114.748 154.312 114.985 154.438C115.227 154.561 115.516 154.623 115.855 154.623C116.253 154.623 116.581 154.559 116.839 154.432C117.097 154.305 117.294 154.117 117.429 153.867C117.569 153.618 117.651 153.306 117.677 152.934Z" fill="#66B0A8"/>
</g>
<g filter="url(#filter12_d_1_168)">
<path d="M68.9399 137.706H66.585V136.22H68.9399C69.3039 136.22 69.6001 136.161 69.8286 136.042C70.0571 135.92 70.2243 135.75 70.3301 135.535C70.4359 135.319 70.4888 135.076 70.4888 134.805C70.4888 134.53 70.4359 134.274 70.3301 134.037C70.2243 133.8 70.0571 133.609 69.8286 133.465C69.6001 133.321 69.3039 133.25 68.9399 133.25H67.2451V141H65.3408V131.758H68.9399C69.6636 131.758 70.2835 131.889 70.7998 132.151C71.3203 132.41 71.7181 132.767 71.9932 133.224C72.2682 133.681 72.4058 134.204 72.4058 134.792C72.4058 135.389 72.2682 135.905 71.9932 136.341C71.7181 136.777 71.3203 137.113 70.7998 137.35C70.2835 137.587 69.6636 137.706 68.9399 137.706ZM79.6611 139.515V141H75.0083V139.515H79.6611ZM75.624 131.758V141H73.7197V131.758H75.624ZM84.6377 133.338L82.124 141H80.0991L83.5332 131.758H84.8218L84.6377 133.338ZM86.7261 141L84.2061 133.338L84.0029 131.758H85.3042L88.7573 141H86.7261ZM86.6118 137.56V139.051H81.7305V137.56H86.6118ZM90.0459 131.758L91.9756 135.973L93.9053 131.758H95.981L92.9404 137.636V141H91.0107V137.636L87.9639 131.758H90.0459Z" fill="#66B0A8"/>
</g>
<g filter="url(#filter13_d_1_168)">
<circle cx="57.5" cy="136.5" r="5" stroke="#66B0A8"/>
<rect x="57.0769" y="131.846" width="0.846154" height="5.07692" rx="0.423077" fill="#66B0A8"/>
<rect x="54.5385" y="136.923" width="0.846154" height="3.10669" rx="0.423077" transform="rotate(-90 54.5385 136.923)" fill="#66B0A8"/>
</g>
<g filter="url(#filter14_d_1_168)">
<circle cx="104.5" cy="136.5" r="5" stroke="#B47700"/>
<rect x="104.077" y="131.846" width="0.846154" height="5.07692" rx="0.423077" fill="#B47700"/>
<rect x="101.538" y="136.923" width="0.846154" height="3.10669" rx="0.423077" transform="rotate(-90 101.538 136.923)" fill="#B47700"/>
</g>
<g filter="url(#filter15_d_1_168)">
<rect x="143.5" y="131.5" width="19" height="11" rx="1.5" stroke="#66B0A8"/>
<path d="M153 134.5L150.75 135.799V133.201L153 134.5Z" fill="#66B0A8"/>
<path fill-rule="evenodd" clip-rule="evenodd" d="M151 134H150C148.343 134 147 135.343 147 137C147 138.657 148.343 140 150 140H156C157.657 140 159 138.657 159 137C159 135.343 157.657 134 156 134V135C157.105 135 158 135.895 158 137C158 138.105 157.105 139 156 139H150C148.895 139 148 138.105 148 137C148 135.895 148.895 135 150 135H151V134Z" fill="#66B0A8"/>
</g>
<path d="M163.55 18.4344C164.835 20.4905 164.729 23.33 163.213 26.3965C161.706 29.4464 158.865 32.5642 155.015 34.9696C151.166 37.375 147.118 38.5619 143.716 38.5796C140.296 38.5975 137.697 37.448 136.412 35.3918C135.127 33.3357 135.233 30.4963 136.749 27.4298C138.256 24.3798 141.097 21.2621 144.947 18.8567C148.796 16.4513 152.844 15.2644 156.246 15.2466C159.666 15.2288 162.265 16.3783 163.55 18.4344Z" stroke="#66B0A8" stroke-width="2"/>
<path fill-rule="evenodd" clip-rule="evenodd" d="M165.921 21.08C167.007 25.9646 163.109 32.565 156.208 36.8777C149.306 41.1904 141.665 41.7998 137.751 38.6826C137.917 39.4331 138.202 40.1431 138.611 40.798C141.684 45.7159 150.63 45.6693 158.592 40.6939C166.554 35.7186 170.518 27.6986 167.445 22.7808C167.036 22.1258 166.522 21.5589 165.921 21.08Z" fill="#B47700"/>
<path d="M150.626 22.7388V32H148.798V24.8462L146.602 25.5444V24.1035L150.429 22.7388H150.626Z" fill="#66B0A8"/>
<g filter="url(#filter16_d_1_168)">
<path d="M163.55 18.4344C164.835 20.4905 164.729 23.33 163.213 26.3965C161.706 29.4464 158.865 32.5642 155.015 34.9696C151.166 37.375 147.118 38.5619 143.716 38.5796C140.296 38.5975 137.697 37.448 136.412 35.3918C135.127 33.3357 135.233 30.4963 136.749 27.4298C138.256 24.3798 141.097 21.2621 144.947 18.8567C148.796 16.4513 152.844 15.2644 156.246 15.2466C159.666 15.2288 162.265 16.3783 163.55 18.4344Z" stroke="#66B0A8" stroke-width="2" shape-rendering="crispEdges"/>
</g>
<g filter="url(#filter17_d_1_168)">
<path fill-rule="evenodd" clip-rule="evenodd" d="M165.921 21.08C167.007 25.9646 163.109 32.565 156.208 36.8777C149.306 41.1904 141.665 41.7998 137.751 38.6826C137.917 39.4331 138.202 40.1431 138.611 40.798C141.684 45.7159 150.63 45.6693 158.592 40.6939C166.554 35.7186 170.518 27.6986 167.445 22.7808C167.036 22.1258 166.522 21.5589 165.921 21.08Z" fill="#B47700"/>
</g>
<g filter="url(#filter18_d_1_168)">
<path d="M150.626 22.7388V32H148.798V24.8462L146.602 25.5444V24.1035L150.429 22.7388H150.626Z" fill="#66B0A8"/>
</g>
<path d="M210.559 18.4344C211.844 20.4905 211.738 23.33 210.222 26.3965C208.715 29.4464 205.874 32.5642 202.024 34.9696C198.175 37.375 194.127 38.5619 190.725 38.5796C187.304 38.5975 184.706 37.448 183.421 35.3918C182.136 33.3357 182.242 30.4963 183.758 27.4298C185.265 24.3798 188.106 21.2621 191.956 18.8567C195.805 16.4513 199.853 15.2644 203.255 15.2466C206.675 15.2288 209.274 16.3783 210.559 18.4344Z" stroke="#66B0A8" stroke-width="2"/>
<path fill-rule="evenodd" clip-rule="evenodd" d="M212.93 21.08C214.016 25.9646 210.118 32.565 203.217 36.8777C196.315 41.1904 188.674 41.7998 184.76 38.6826C184.926 39.4331 185.211 40.1431 185.62 40.798C188.693 45.7159 197.639 45.6693 205.601 40.6939C213.563 35.7186 217.527 27.6986 214.454 22.7808C214.045 22.1258 213.531 21.5589 212.93 21.08Z" fill="#B47700"/>
<g filter="url(#filter19_d_1_168)">
<path d="M199.501 30.5718V32H193.179V30.7812L196.169 27.5757C196.469 27.2414 196.706 26.9473 196.88 26.6933C197.053 26.4352 197.178 26.2046 197.254 26.0014C197.334 25.7941 197.375 25.5973 197.375 25.4111C197.375 25.1318 197.328 24.8927 197.235 24.6938C197.142 24.4907 197.004 24.3341 196.822 24.2241C196.645 24.1141 196.425 24.0591 196.162 24.0591C195.883 24.0591 195.642 24.1268 195.439 24.2622C195.24 24.3976 195.087 24.5859 194.982 24.8271C194.88 25.0683 194.829 25.3413 194.829 25.646H192.995C192.995 25.0959 193.126 24.5923 193.388 24.1352C193.651 23.674 194.021 23.3079 194.499 23.0371C194.977 22.762 195.544 22.6245 196.2 22.6245C196.848 22.6245 197.394 22.7303 197.838 22.9419C198.287 23.1492 198.625 23.4497 198.854 23.8432C199.086 24.2326 199.203 24.6981 199.203 25.2397C199.203 25.5444 199.154 25.8428 199.057 26.1348C198.959 26.4225 198.82 26.7103 198.638 26.998C198.46 27.2816 198.244 27.5693 197.99 27.8613C197.737 28.1533 197.455 28.4559 197.146 28.769L195.54 30.5718H199.501Z" fill="#66B0A8"/>
</g>
<g filter="url(#filter20_d_1_168)">
<path d="M210.559 18.4344C211.844 20.4905 211.738 23.33 210.222 26.3965C208.715 29.4464 205.874 32.5642 202.024 34.9696C198.175 37.375 194.127 38.5619 190.725 38.5796C187.304 38.5975 184.706 37.448 183.421 35.3918C182.136 33.3357 182.242 30.4963 183.758 27.4298C185.265 24.3798 188.106 21.2621 191.956 18.8567C195.805 16.4513 199.853 15.2644 203.255 15.2466C206.675 15.2288 209.274 16.3783 210.559 18.4344Z" stroke="#66B0A8" stroke-width="2" shape-rendering="crispEdges"/>
</g>
<g filter="url(#filter21_d_1_168)">
<path fill-rule="evenodd" clip-rule="evenodd" d="M212.93 21.08C214.016 25.9646 210.118 32.565 203.217 36.8777C196.315 41.1904 188.674 41.7998 184.76 38.6826C184.926 39.4331 185.211 40.1431 185.62 40.798C188.693 45.7159 197.639 45.6693 205.601 40.6939C213.563 35.7186 217.527 27.6986 214.454 22.7808C214.045 22.1258 213.531 21.5589 212.93 21.08Z" fill="#B47700"/>
</g>
<path d="M257.568 18.4344C258.852 20.4905 258.747 23.33 257.231 26.3965C255.724 29.4464 252.883 32.5642 249.033 34.9696C245.184 37.375 241.136 38.5619 237.734 38.5796C234.313 38.5975 231.715 37.448 230.43 35.3918C229.145 33.3357 229.251 30.4963 230.767 27.4298C232.274 24.3798 235.115 21.2621 238.965 18.8567C242.814 16.4513 246.862 15.2644 250.264 15.2466C253.684 15.2288 256.283 16.3783 257.568 18.4344Z" stroke="#66B0A8" stroke-width="2"/>
<path fill-rule="evenodd" clip-rule="evenodd" d="M259.939 21.08C261.025 25.9646 257.127 32.565 250.225 36.8777C243.324 41.1904 235.683 41.7998 231.769 38.6826C231.935 39.4331 232.22 40.1431 232.629 40.798C235.702 45.7159 244.648 45.6693 252.61 40.6939C260.572 35.7186 264.536 27.6986 261.463 22.7808C261.054 22.1258 260.54 21.5589 259.939 21.08Z" fill="#B47700"/>
<g filter="url(#filter22_d_1_168)">
<path d="M242.06 26.5854H243.038C243.351 26.5854 243.609 26.5325 243.812 26.4267C244.016 26.3167 244.166 26.1644 244.263 25.9697C244.365 25.7708 244.415 25.5402 244.415 25.2778C244.415 25.0408 244.369 24.8314 244.276 24.6494C244.187 24.4632 244.049 24.3193 243.863 24.2178C243.677 24.112 243.442 24.0591 243.159 24.0591C242.934 24.0591 242.727 24.1035 242.536 24.1924C242.346 24.2812 242.194 24.4061 242.079 24.5669C241.965 24.7277 241.908 24.9223 241.908 25.1509H240.074C240.074 24.6431 240.209 24.2008 240.48 23.8242C240.755 23.4476 241.123 23.1535 241.584 22.9419C242.046 22.7303 242.553 22.6245 243.108 22.6245C243.734 22.6245 244.282 22.7261 244.752 22.9292C245.222 23.1281 245.588 23.4222 245.85 23.8115C246.112 24.2008 246.244 24.6833 246.244 25.2588C246.244 25.5508 246.176 25.8343 246.04 26.1094C245.905 26.3802 245.71 26.6256 245.456 26.8457C245.207 27.0615 244.902 27.235 244.542 27.3662C244.183 27.4931 243.779 27.5566 243.33 27.5566H242.06V26.5854ZM242.06 27.9756V27.0298H243.33C243.834 27.0298 244.276 27.0869 244.657 27.2012C245.037 27.3154 245.357 27.4805 245.615 27.6963C245.873 27.9079 246.068 28.1597 246.199 28.4516C246.33 28.7394 246.396 29.0589 246.396 29.4101C246.396 29.8418 246.313 30.2269 246.148 30.5654C245.983 30.8997 245.751 31.1833 245.45 31.416C245.154 31.6487 244.807 31.8265 244.409 31.9492C244.011 32.0677 243.578 32.1269 243.108 32.1269C242.718 32.1269 242.335 32.074 241.959 31.9682C241.586 31.8582 241.248 31.6953 240.943 31.4795C240.643 31.2594 240.402 30.9844 240.22 30.6543C240.042 30.32 239.953 29.9243 239.953 29.4673H241.787C241.787 29.7042 241.847 29.9158 241.965 30.102C242.084 30.2882 242.247 30.4342 242.454 30.54C242.666 30.6458 242.9 30.6987 243.159 30.6987C243.451 30.6987 243.7 30.6458 243.908 30.54C244.119 30.43 244.28 30.2777 244.39 30.083C244.504 29.8841 244.561 29.6535 244.561 29.3911C244.561 29.0526 244.5 28.7817 244.377 28.5786C244.255 28.3712 244.079 28.2189 243.85 28.1216C243.622 28.0242 243.351 27.9756 243.038 27.9756H242.06Z" fill="#66B0A8"/>
</g>
<g filter="url(#filter23_d_1_168)">
<path d="M257.568 18.4344C258.852 20.4905 258.747 23.33 257.231 26.3965C255.724 29.4464 252.883 32.5642 249.033 34.9696C245.184 37.375 241.136 38.5619 237.734 38.5796C234.313 38.5975 231.715 37.448 230.43 35.3918C229.145 33.3357 229.251 30.4963 230.767 27.4298C232.274 24.3798 235.115 21.2621 238.965 18.8567C242.814 16.4513 246.862 15.2644 250.264 15.2466C253.684 15.2288 256.283 16.3783 257.568 18.4344Z" stroke="#66B0A8" stroke-width="2" shape-rendering="crispEdges"/>
</g>
<g filter="url(#filter24_d_1_168)">
<path fill-rule="evenodd" clip-rule="evenodd" d="M259.939 21.08C261.025 25.9646 257.127 32.565 250.225 36.8777C243.324 41.1904 235.683 41.7998 231.769 38.6826C231.935 39.4331 232.22 40.1431 232.629 40.798C235.702 45.7159 244.648 45.6693 252.61 40.6939C260.572 35.7186 264.536 27.6986 261.463 22.7808C261.054 22.1258 260.54 21.5589 259.939 21.08Z" fill="#B47700"/>
</g>
<path d="M304.577 18.4344C305.861 20.4905 305.756 23.33 304.24 26.3965C302.733 29.4464 299.892 32.5642 296.042 34.9696C292.193 37.375 288.145 38.5619 284.743 38.5796C281.322 38.5975 278.724 37.448 277.439 35.3918C276.154 33.3357 276.26 30.4963 277.776 27.4298C279.283 24.3798 282.124 21.2621 285.974 18.8567C289.823 16.4513 293.871 15.2644 297.273 15.2466C300.693 15.2288 303.292 16.3783 304.577 18.4344Z" stroke="#66B0A8" stroke-width="2"/>
<path fill-rule="evenodd" clip-rule="evenodd" d="M306.948 21.08C308.033 25.9646 304.136 32.565 297.234 36.8777C290.333 41.1904 282.692 41.7998 278.778 38.6826C278.944 39.4331 279.229 40.1431 279.638 40.798C282.711 45.7159 291.657 45.6693 299.619 40.6939C307.581 35.7186 311.545 27.6986 308.472 22.7808C308.062 22.1258 307.549 21.5589 306.948 21.08Z" fill="#B47700"/>
<g filter="url(#filter25_d_1_168)">
<path d="M293.671 28.5469V29.9814H287.013L286.924 28.8706L290.777 22.7578H292.231L290.656 25.3921L288.739 28.5469H293.671ZM292.624 22.7578V32H290.796V22.7578H292.624Z" fill="#66B0A8"/>
</g>
<g filter="url(#filter26_d_1_168)">
<path d="M304.577 18.4344C305.861 20.4905 305.756 23.33 304.24 26.3965C302.733 29.4464 299.892 32.5642 296.042 34.9696C292.193 37.375 288.145 38.5619 284.743 38.5796C281.322 38.5975 278.724 37.448 277.439 35.3918C276.154 33.3357 276.26 30.4963 277.776 27.4298C279.283 24.3798 282.124 21.2621 285.974 18.8567C289.823 16.4513 293.871 15.2644 297.273 15.2466C300.693 15.2288 303.292 16.3783 304.577 18.4344Z" stroke="#66B0A8" stroke-width="2" shape-rendering="crispEdges"/>
</g>
<g filter="url(#filter27_d_1_168)">
<path fill-rule="evenodd" clip-rule="evenodd" d="M306.948 21.08C308.033 25.9646 304.136 32.565 297.234 36.8777C290.333 41.1904 282.692 41.7998 278.778 38.6826C278.944 39.4331 279.229 40.1431 279.638 40.798C282.711 45.7159 291.657 45.6693 299.619 40.6939C307.581 35.7186 311.545 27.6986 308.472 22.7808C308.062 22.1258 307.549 21.5589 306.948 21.08Z" fill="#B47700"/>
</g>
<path d="M351.586 18.4344C352.87 20.4905 352.765 23.33 351.249 26.3965C349.742 29.4464 346.901 32.5642 343.051 34.9696C339.202 37.375 335.154 38.5619 331.752 38.5796C328.331 38.5975 325.733 37.448 324.448 35.3918C323.163 33.3357 323.269 30.4963 324.785 27.4298C326.292 24.3798 329.133 21.2621 332.983 18.8567C336.832 16.4513 340.88 15.2644 344.282 15.2466C347.702 15.2288 350.301 16.3783 351.586 18.4344Z" stroke="#66B0A8" stroke-width="2"/>
<path fill-rule="evenodd" clip-rule="evenodd" d="M353.957 21.08C355.042 25.9646 351.145 32.565 344.243 36.8777C337.342 41.1904 329.701 41.7998 325.787 38.6826C325.953 39.4331 326.238 40.1431 326.647 40.798C329.72 45.7159 338.666 45.6693 346.628 40.6939C354.59 35.7186 358.554 27.6986 355.481 22.7808C355.071 22.1258 354.558 21.5589 353.957 21.08Z" fill="#B47700"/>
<g filter="url(#filter28_d_1_168)">
<path d="M335.926 27.7915L334.466 27.4424L334.993 22.7578H340.185V24.2368H336.497L336.269 26.2871C336.392 26.2152 336.578 26.139 336.827 26.0586C337.077 25.9739 337.356 25.9316 337.665 25.9316C338.114 25.9316 338.512 26.0014 338.859 26.1411C339.206 26.2807 339.5 26.4839 339.741 26.7505C339.986 27.0171 340.173 27.3429 340.3 27.728C340.427 28.1131 340.49 28.549 340.49 29.0356C340.49 29.4461 340.427 29.8375 340.3 30.2099C340.173 30.5781 339.98 30.9082 339.722 31.2002C339.464 31.4879 339.14 31.7143 338.751 31.8794C338.361 32.0444 337.9 32.1269 337.367 32.1269C336.969 32.1269 336.584 32.0677 336.212 31.9492C335.844 31.8307 335.511 31.6551 335.215 31.4223C334.923 31.1896 334.688 30.9082 334.51 30.5781C334.337 30.2438 334.246 29.8629 334.238 29.4355H336.053C336.078 29.6979 336.146 29.9243 336.256 30.1147C336.37 30.3009 336.521 30.4448 336.707 30.5464C336.893 30.6479 337.111 30.6987 337.361 30.6987C337.593 30.6987 337.792 30.6543 337.957 30.5654C338.122 30.4765 338.256 30.3538 338.357 30.1973C338.459 30.0364 338.533 29.8502 338.579 29.6387C338.63 29.4228 338.656 29.1901 338.656 28.9404C338.656 28.6907 338.626 28.4643 338.567 28.2612C338.507 28.0581 338.416 27.8825 338.294 27.7344C338.171 27.5862 338.014 27.472 337.824 27.3916C337.638 27.3112 337.42 27.271 337.17 27.271C336.832 27.271 336.569 27.3239 336.383 27.4297C336.201 27.5355 336.049 27.6561 335.926 27.7915Z" fill="#66B0A8"/>
</g>
<g filter="url(#filter29_d_1_168)">
<path d="M351.586 18.4344C352.87 20.4905 352.765 23.33 351.249 26.3965C349.742 29.4464 346.901 32.5642 343.051 34.9696C339.202 37.375 335.154 38.5619 331.752 38.5796C328.331 38.5975 325.733 37.448 324.448 35.3918C323.163 33.3357 323.269 30.4963 324.785 27.4298C326.292 24.3798 329.133 21.2621 332.983 18.8567C336.832 16.4513 340.88 15.2644 344.282 15.2466C347.702 15.2288 350.301 16.3783 351.586 18.4344Z" stroke="#66B0A8" stroke-width="2" shape-rendering="crispEdges"/>
</g>
<g filter="url(#filter30_d_1_168)">
<path fill-rule="evenodd" clip-rule="evenodd" d="M353.957 21.08C355.042 25.9646 351.145 32.565 344.243 36.8777C337.342 41.1904 329.701 41.7998 325.787 38.6826C325.953 39.4331 326.238 40.1431 326.647 40.798C329.72 45.7159 338.666 45.6693 346.628 40.6939C354.59 35.7186 358.554 27.6986 355.481 22.7808C355.071 22.1258 354.558 21.5589 353.957 21.08Z" fill="#B47700"/>
</g>
<g style="mix-blend-mode:color-dodge" filter="url(#filter31_b_1_168)">
<rect x="7" y="4" width="501" height="163" rx="5" fill="url(#paint1_linear_1_168)" fill-opacity="0.15"/>
</g>
</g>
<defs>
<filter id="filter0_di_1_168" x="0" y="0" width="515" height="177" filterUnits="userSpaceOnUse" color-interpolation-filters="sRGB">
<feFlood flood-opacity="0" result="BackgroundImageFix"/>
<feColorMatrix in="SourceAlpha" type="matrix" values="0 0 0 0 0 0 0 0 0 0 0 0 0 0 0 0 0 0 127 0" result="hardAlpha"/>
<feOffset dy="3"/>
<feGaussianBlur stdDeviation="3.5"/>
<feComposite in2="hardAlpha" operator="out"/>
<feColorMatrix type="matrix" values="0 0 0 0 0.116667 0 0 0 0 0.116667 0 0 0 0 0.116667 0 0 0 0.46 0"/>
<feBlend mode="normal" in2="BackgroundImageFix" result="effect1_dropShadow_1_168"/>
<feBlend mode="normal" in="SourceGraphic" in2="effect1_dropShadow_1_168" result="shape"/>
<feColorMatrix in="SourceAlpha" type="matrix" values="0 0 0 0 0 0 0 0 0 0 0 0 0 0 0 0 0 0 127 0" result="hardAlpha"/>
<feOffset/>
<feGaussianBlur stdDeviation="2"/>
<feComposite in2="hardAlpha" operator="arithmetic" k2="-1" k3="1"/>
<feColorMatrix type="matrix" values="0 0 0 0 0.320833 0 0 0 0 0.320833 0 0 0 0 0.320833 0 0 0 0.66 0"/>
<feBlend mode="normal" in2="shape" result="effect2_innerShadow_1_168"/>
</filter>
<filter id="filter1_d_1_168" x="362" y="15" width="26" height="18" filterUnits="userSpaceOnUse" color-interpolation-filters="sRGB">
<feFlood flood-opacity="0" result="BackgroundImageFix"/>
<feColorMatrix in="SourceAlpha" type="matrix" values="0 0 0 0 0 0 0 0 0 0 0 0 0 0 0 0 0 0 127 0" result="hardAlpha"/>
<feOffset dy="2"/>
<feGaussianBlur stdDeviation="1.5"/>
<feComposite in2="hardAlpha" operator="out"/>
<feColorMatrix type="matrix" values="0 0 0 0 0.128038 0 0 0 0 0.520833 0 0 0 0 0.478369 0 0 0 1 0"/>
<feBlend mode="normal" in2="BackgroundImageFix" result="effect1_dropShadow_1_168"/>
<feBlend mode="normal" in="SourceGraphic" in2="effect1_dropShadow_1_168" result="shape"/>
</filter>
<filter id="filter2_d_1_168" x="459" y="14" width="37" height="22" filterUnits="userSpaceOnUse" color-interpolation-filters="sRGB">
<feFlood flood-opacity="0" result="BackgroundImageFix"/>
<feColorMatrix in="SourceAlpha" type="matrix" values="0 0 0 0 0 0 0 0 0 0 0 0 0 0 0 0 0 0 127 0" result="hardAlpha"/>
<feOffset dy="2"/>
<feGaussianBlur stdDeviation="1.5"/>
<feComposite in2="hardAlpha" operator="out"/>
<feColorMatrix type="matrix" values="0 0 0 0 0.883333 0 0 0 0 0.636 0 0 0 0 0 0 0 0 0.69 0"/>
<feBlend mode="normal" in2="BackgroundImageFix" result="effect1_dropShadow_1_168"/>
<feBlend mode="normal" in="SourceGraphic" in2="effect1_dropShadow_1_168" result="shape"/>
</filter>
<filter id="filter3_d_1_168" x="463.762" y="17.8457" width="27.1465" height="14.7715" filterUnits="userSpaceOnUse" color-interpolation-filters="sRGB">
<feFlood flood-opacity="0" result="BackgroundImageFix"/>
<feColorMatrix in="SourceAlpha" type="matrix" values="0 0 0 0 0 0 0 0 0 0 0 0 0 0 0 0 0 0 127 0" result="hardAlpha"/>
<feOffset dy="2"/>
<feGaussianBlur stdDeviation="1.5"/>
<feComposite in2="hardAlpha" operator="out"/>
<feColorMatrix type="matrix" values="0 0 0 0 0.883333 0 0 0 0 0.636 0 0 0 0 0 0 0 0 0.69 0"/>
<feBlend mode="normal" in2="BackgroundImageFix" result="effect1_dropShadow_1_168"/>
<feBlend mode="normal" in="SourceGraphic" in2="effect1_dropShadow_1_168" result="shape"/>
</filter>
<filter id="filter4_d_1_168" x="420.051" y="126.189" width="75.4409" height="34.957" filterUnits="userSpaceOnUse" color-interpolation-filters="sRGB">
<feFlood flood-opacity="0" result="BackgroundImageFix"/>
<feColorMatrix in="SourceAlpha" type="matrix" values="0 0 0 0 0 0 0 0 0 0 0 0 0 0 0 0 0 0 127 0" result="hardAlpha"/>
<feOffset dy="2"/>
<feGaussianBlur stdDeviation="1.5"/>
<feComposite in2="hardAlpha" operator="out"/>
<feColorMatrix type="matrix" values="0 0 0 0 0.128038 0 0 0 0 0.520833 0 0 0 0 0.478369 0 0 0 1 0"/>
<feBlend mode="normal" in2="BackgroundImageFix" result="effect1_dropShadow_1_168"/>
<feBlend mode="normal" in="SourceGraphic" in2="effect1_dropShadow_1_168" result="shape"/>
</filter>
<filter id="filter5_d_1_168" x="325.546" y="145.631" width="49.2339" height="15.4961" filterUnits="userSpaceOnUse" color-interpolation-filters="sRGB">
<feFlood flood-opacity="0" result="BackgroundImageFix"/>
<feColorMatrix in="SourceAlpha" type="matrix" values="0 0 0 0 0 0 0 0 0 0 0 0 0 0 0 0 0 0 127 0" result="hardAlpha"/>
<feOffset dy="2"/>
<feGaussianBlur stdDeviation="1.5"/>
<feComposite in2="hardAlpha" operator="out"/>
<feColorMatrix type="matrix" values="0 0 0 0 0.128038 0 0 0 0 0.520833 0 0 0 0 0.478369 0 0 0 1 0"/>
<feBlend mode="normal" in2="BackgroundImageFix" result="effect1_dropShadow_1_168"/>
<feBlend mode="normal" in="SourceGraphic" in2="effect1_dropShadow_1_168" result="shape"/>
</filter>
<filter id="filter6_d_1_168" x="254.438" y="124.631" width="21.374" height="15.4961" filterUnits="userSpaceOnUse" color-interpolation-filters="sRGB">
<feFlood flood-opacity="0" result="BackgroundImageFix"/>
<feColorMatrix in="SourceAlpha" type="matrix" values="0 0 0 0 0 0 0 0 0 0 0 0 0 0 0 0 0 0 127 0" result="hardAlpha"/>
<feOffset dy="2"/>
<feGaussianBlur stdDeviation="1.5"/>
<feComposite in2="hardAlpha" operator="out"/>
<feColorMatrix type="matrix" values="0 0 0 0 0.128038 0 0 0 0 0.520833 0 0 0 0 0.478369 0 0 0 1 0"/>
<feBlend mode="normal" in2="BackgroundImageFix" result="effect1_dropShadow_1_168"/>
<feBlend mode="normal" in="SourceGraphic" in2="effect1_dropShadow_1_168" result="shape"/>
</filter>
<filter id="filter7_d_1_168" x="109.825" y="130.625" width="28.9087" height="15.5024" filterUnits="userSpaceOnUse" color-interpolation-filters="sRGB">
<feFlood flood-opacity="0" result="BackgroundImageFix"/>
<feColorMatrix in="SourceAlpha" type="matrix" values="0 0 0 0 0 0 0 0 0 0 0 0 0 0 0 0 0 0 127 0" result="hardAlpha"/>
<feOffset dy="2"/>
<feGaussianBlur stdDeviation="1.5"/>
<feComposite in2="hardAlpha" operator="out"/>
<feColorMatrix type="matrix" values="0 0 0 0 0.883333 0 0 0 0 0.636 0 0 0 0 0 0 0 0 0.69 0"/>
<feBlend mode="normal" in2="BackgroundImageFix" result="effect1_dropShadow_1_168"/>
<feBlend mode="normal" in="SourceGraphic" in2="effect1_dropShadow_1_168" result="shape"/>
</filter>
<filter id="filter8_d_1_168" x="176.333" y="130.631" width="43.1211" height="30.4961" filterUnits="userSpaceOnUse" color-interpolation-filters="sRGB">
<feFlood flood-opacity="0" result="BackgroundImageFix"/>
<feColorMatrix in="SourceAlpha" type="matrix" values="0 0 0 0 0 0 0 0 0 0 0 0 0 0 0 0 0 0 127 0" result="hardAlpha"/>
<feOffset dy="2"/>
<feGaussianBlur stdDeviation="1.5"/>
<feComposite in2="hardAlpha" operator="out"/>
<feColorMatrix type="matrix" values="0 0 0 0 0.128038 0 0 0 0 0.520833 0 0 0 0 0.478369 0 0 0 1 0"/>
<feBlend mode="normal" in2="BackgroundImageFix" result="effect1_dropShadow_1_168"/>
<feBlend mode="normal" in="SourceGraphic" in2="effect1_dropShadow_1_168" result="shape"/>
</filter>
<filter id="filter9_d_1_168" x="135.863" y="145.758" width="30.5781" height="15.2422" filterUnits="userSpaceOnUse" color-interpolation-filters="sRGB">
<feFlood flood-opacity="0" result="BackgroundImageFix"/>
<feColorMatrix in="SourceAlpha" type="matrix" values="0 0 0 0 0 0 0 0 0 0 0 0 0 0 0 0 0 0 127 0" result="hardAlpha"/>
<feOffset dy="2"/>
<feGaussianBlur stdDeviation="1.5"/>
<feComposite in2="hardAlpha" operator="out"/>
<feColorMatrix type="matrix" values="0 0 0 0 0.128038 0 0 0 0 0.520833 0 0 0 0 0.478369 0 0 0 1 0"/>
<feBlend mode="normal" in2="BackgroundImageFix" result="effect1_dropShadow_1_168"/>
<feBlend mode="normal" in="SourceGraphic" in2="effect1_dropShadow_1_168" result="shape"/>
</filter>
<filter id="filter10_d_1_168" x="29.9673" y="32.6309" width="79.4805" height="17.0195" filterUnits="userSpaceOnUse" color-interpolation-filters="sRGB">
<feFlood flood-opacity="0" result="BackgroundImageFix"/>
<feColorMatrix in="SourceAlpha" type="matrix" values="0 0 0 0 0 0 0 0 0 0 0 0 0 0 0 0 0 0 127 0" result="hardAlpha"/>
<feOffset dy="2"/>
<feGaussianBlur stdDeviation="1.5"/>
<feComposite in2="hardAlpha" operator="out"/>
<feColorMatrix type="matrix" values="0 0 0 0 0.128038 0 0 0 0 0.520833 0 0 0 0 0.478369 0 0 0 1 0"/>
<feBlend mode="normal" in2="BackgroundImageFix" result="effect1_dropShadow_1_168"/>
<feBlend mode="normal" in="SourceGraphic" in2="effect1_dropShadow_1_168" result="shape"/>
</filter>
<filter id="filter11_d_1_168" x="51.5239" y="145.625" width="71.0635" height="15.5024" filterUnits="userSpaceOnUse" color-interpolation-filters="sRGB">
<feFlood flood-opacity="0" result="BackgroundImageFix"/>
<feColorMatrix in="SourceAlpha" type="matrix" values="0 0 0 0 0 0 0 0 0 0 0 0 0 0 0 0 0 0 127 0" result="hardAlpha"/>
<feOffset dy="2"/>
<feGaussianBlur stdDeviation="1.5"/>
<feComposite in2="hardAlpha" operator="out"/>
<feColorMatrix type="matrix" values="0 0 0 0 0.128038 0 0 0 0 0.520833 0 0 0 0 0.478369 0 0 0 1 0"/>
<feBlend mode="normal" in2="BackgroundImageFix" result="effect1_dropShadow_1_168"/>
<feBlend mode="normal" in="SourceGraphic" in2="effect1_dropShadow_1_168" result="shape"/>
</filter>
<filter id="filter12_d_1_168" x="62.3408" y="130.758" width="36.6401" height="15.2422" filterUnits="userSpaceOnUse" color-interpolation-filters="sRGB">
<feFlood flood-opacity="0" result="BackgroundImageFix"/>
<feColorMatrix in="SourceAlpha" type="matrix" values="0 0 0 0 0 0 0 0 0 0 0 0 0 0 0 0 0 0 127 0" result="hardAlpha"/>
<feOffset dy="2"/>
<feGaussianBlur stdDeviation="1.5"/>
<feComposite in2="hardAlpha" operator="out"/>
<feColorMatrix type="matrix" values="0 0 0 0 0.128038 0 0 0 0 0.520833 0 0 0 0 0.478369 0 0 0 1 0"/>
<feBlend mode="normal" in2="BackgroundImageFix" result="effect1_dropShadow_1_168"/>
<feBlend mode="normal" in="SourceGraphic" in2="effect1_dropShadow_1_168" result="shape"/>
</filter>
<filter id="filter13_d_1_168" x="49" y="130" width="17" height="17" filterUnits="userSpaceOnUse" color-interpolation-filters="sRGB">
<feFlood flood-opacity="0" result="BackgroundImageFix"/>
<feColorMatrix in="SourceAlpha" type="matrix" values="0 0 0 0 0 0 0 0 0 0 0 0 0 0 0 0 0 0 127 0" result="hardAlpha"/>
<feOffset dy="2"/>
<feGaussianBlur stdDeviation="1.5"/>
<feComposite in2="hardAlpha" operator="out"/>
<feColorMatrix type="matrix" values="0 0 0 0 0.128038 0 0 0 0 0.520833 0 0 0 0 0.478369 0 0 0 1 0"/>
<feBlend mode="normal" in2="BackgroundImageFix" result="effect1_dropShadow_1_168"/>
<feBlend mode="normal" in="SourceGraphic" in2="effect1_dropShadow_1_168" result="shape"/>
</filter>
<filter id="filter14_d_1_168" x="96" y="130" width="17" height="17" filterUnits="userSpaceOnUse" color-interpolation-filters="sRGB">
<feFlood flood-opacity="0" result="BackgroundImageFix"/>
<feColorMatrix in="SourceAlpha" type="matrix" values="0 0 0 0 0 0 0 0 0 0 0 0 0 0 0 0 0 0 127 0" result="hardAlpha"/>
<feOffset dy="2"/>
<feGaussianBlur stdDeviation="1.5"/>
<feComposite in2="hardAlpha" operator="out"/>
<feColorMatrix type="matrix" values="0 0 0 0 0.883333 0 0 0 0 0.636 0 0 0 0 0 0 0 0 0.69 0"/>
<feBlend mode="normal" in2="BackgroundImageFix" result="effect1_dropShadow_1_168"/>
<feBlend mode="normal" in="SourceGraphic" in2="effect1_dropShadow_1_168" result="shape"/>
</filter>
<filter id="filter15_d_1_168" x="140" y="130" width="26" height="18" filterUnits="userSpaceOnUse" color-interpolation-filters="sRGB">
<feFlood flood-opacity="0" result="BackgroundImageFix"/>
<feColorMatrix in="SourceAlpha" type="matrix" values="0 0 0 0 0 0 0 0 0 0 0 0 0 0 0 0 0 0 127 0" result="hardAlpha"/>
<feOffset dy="2"/>
<feGaussianBlur stdDeviation="1.5"/>
<feComposite in2="hardAlpha" operator="out"/>
<feColorMatrix type="matrix" values="0 0 0 0 0.128038 0 0 0 0 0.520833 0 0 0 0 0.478369 0 0 0 1 0"/>
<feBlend mode="normal" in2="BackgroundImageFix" result="effect1_dropShadow_1_168"/>
<feBlend mode="normal" in="SourceGraphic" in2="effect1_dropShadow_1_168" result="shape"/>
</filter>
<filter id="filter16_d_1_168" x="131.523" y="13.2464" width="36.9149" height="31.3334" filterUnits="userSpaceOnUse" color-interpolation-filters="sRGB">
<feFlood flood-opacity="0" result="BackgroundImageFix"/>
<feColorMatrix in="SourceAlpha" type="matrix" values="0 0 0 0 0 0 0 0 0 0 0 0 0 0 0 0 0 0 127 0" result="hardAlpha"/>
<feOffset dy="2"/>
<feGaussianBlur stdDeviation="1.5"/>
<feComposite in2="hardAlpha" operator="out"/>
<feColorMatrix type="matrix" values="0 0 0 0 0.128038 0 0 0 0 0.520833 0 0 0 0 0.478369 0 0 0 1 0"/>
<feBlend mode="normal" in2="BackgroundImageFix" result="effect1_dropShadow_1_168"/>
<feBlend mode="normal" in="SourceGraphic" in2="effect1_dropShadow_1_168" result="shape"/>
</filter>
<filter id="filter17_d_1_168" x="134.751" y="20.08" width="36.7348" height="29.3761" filterUnits="userSpaceOnUse" color-interpolation-filters="sRGB">
<feFlood flood-opacity="0" result="BackgroundImageFix"/>
<feColorMatrix in="SourceAlpha" type="matrix" values="0 0 0 0 0 0 0 0 0 0 0 0 0 0 0 0 0 0 127 0" result="hardAlpha"/>
<feOffset dy="2"/>
<feGaussianBlur stdDeviation="1.5"/>
<feComposite in2="hardAlpha" operator="out"/>
<feColorMatrix type="matrix" values="0 0 0 0 0.883333 0 0 0 0 0.636 0 0 0 0 0 0 0 0 0.69 0"/>
<feBlend mode="normal" in2="BackgroundImageFix" result="effect1_dropShadow_1_168"/>
<feBlend mode="normal" in="SourceGraphic" in2="effect1_dropShadow_1_168" result="shape"/>
</filter>
<filter id="filter18_d_1_168" x="143.602" y="21.7388" width="10.0244" height="15.2612" filterUnits="userSpaceOnUse" color-interpolation-filters="sRGB">
<feFlood flood-opacity="0" result="BackgroundImageFix"/>
<feColorMatrix in="SourceAlpha" type="matrix" values="0 0 0 0 0 0 0 0 0 0 0 0 0 0 0 0 0 0 127 0" result="hardAlpha"/>
<feOffset dy="2"/>
<feGaussianBlur stdDeviation="1.5"/>
<feComposite in2="hardAlpha" operator="out"/>
<feColorMatrix type="matrix" values="0 0 0 0 0.128038 0 0 0 0 0.520833 0 0 0 0 0.478369 0 0 0 1 0"/>
<feBlend mode="normal" in2="BackgroundImageFix" result="effect1_dropShadow_1_168"/>
<feBlend mode="normal" in="SourceGraphic" in2="effect1_dropShadow_1_168" result="shape"/>
</filter>
<filter id="filter19_d_1_168" x="189.995" y="21.6245" width="12.5063" height="15.3755" filterUnits="userSpaceOnUse" color-interpolation-filters="sRGB">
<feFlood flood-opacity="0" result="BackgroundImageFix"/>
<feColorMatrix in="SourceAlpha" type="matrix" values="0 0 0 0 0 0 0 0 0 0 0 0 0 0 0 0 0 0 127 0" result="hardAlpha"/>
<feOffset dy="2"/>
<feGaussianBlur stdDeviation="1.5"/>
<feComposite in2="hardAlpha" operator="out"/>
<feColorMatrix type="matrix" values="0 0 0 0 0.128038 0 0 0 0 0.520833 0 0 0 0 0.478369 0 0 0 1 0"/>
<feBlend mode="normal" in2="BackgroundImageFix" result="effect1_dropShadow_1_168"/>
<feBlend mode="normal" in="SourceGraphic" in2="effect1_dropShadow_1_168" result="shape"/>
</filter>
<filter id="filter20_d_1_168" x="178.532" y="13.2464" width="36.9149" height="31.3334" filterUnits="userSpaceOnUse" color-interpolation-filters="sRGB">
<feFlood flood-opacity="0" result="BackgroundImageFix"/>
<feColorMatrix in="SourceAlpha" type="matrix" values="0 0 0 0 0 0 0 0 0 0 0 0 0 0 0 0 0 0 127 0" result="hardAlpha"/>
<feOffset dy="2"/>
<feGaussianBlur stdDeviation="1.5"/>
<feComposite in2="hardAlpha" operator="out"/>
<feColorMatrix type="matrix" values="0 0 0 0 0.128038 0 0 0 0 0.520833 0 0 0 0 0.478369 0 0 0 1 0"/>
<feBlend mode="normal" in2="BackgroundImageFix" result="effect1_dropShadow_1_168"/>
<feBlend mode="normal" in="SourceGraphic" in2="effect1_dropShadow_1_168" result="shape"/>
</filter>
<filter id="filter21_d_1_168" x="181.76" y="20.08" width="36.7348" height="29.3761" filterUnits="userSpaceOnUse" color-interpolation-filters="sRGB">
<feFlood flood-opacity="0" result="BackgroundImageFix"/>
<feColorMatrix in="SourceAlpha" type="matrix" values="0 0 0 0 0 0 0 0 0 0 0 0 0 0 0 0 0 0 127 0" result="hardAlpha"/>
<feOffset dy="2"/>
<feGaussianBlur stdDeviation="1.5"/>
<feComposite in2="hardAlpha" operator="out"/>
<feColorMatrix type="matrix" values="0 0 0 0 0.883333 0 0 0 0 0.636 0 0 0 0 0 0 0 0 0.69 0"/>
<feBlend mode="normal" in2="BackgroundImageFix" result="effect1_dropShadow_1_168"/>
<feBlend mode="normal" in="SourceGraphic" in2="effect1_dropShadow_1_168" result="shape"/>
</filter>
<filter id="filter22_d_1_168" x="236.953" y="21.6245" width="12.4429" height="15.5024" filterUnits="userSpaceOnUse" color-interpolation-filters="sRGB">
<feFlood flood-opacity="0" result="BackgroundImageFix"/>
<feColorMatrix in="SourceAlpha" type="matrix" values="0 0 0 0 0 0 0 0 0 0 0 0 0 0 0 0 0 0 127 0" result="hardAlpha"/>
<feOffset dy="2"/>
<feGaussianBlur stdDeviation="1.5"/>
<feComposite in2="hardAlpha" operator="out"/>
<feColorMatrix type="matrix" values="0 0 0 0 0.128038 0 0 0 0 0.520833 0 0 0 0 0.478369 0 0 0 1 0"/>
<feBlend mode="normal" in2="BackgroundImageFix" result="effect1_dropShadow_1_168"/>
<feBlend mode="normal" in="SourceGraphic" in2="effect1_dropShadow_1_168" result="shape"/>
</filter>
<filter id="filter23_d_1_168" x="225.541" y="13.2464" width="36.9149" height="31.3334" filterUnits="userSpaceOnUse" color-interpolation-filters="sRGB">
<feFlood flood-opacity="0" result="BackgroundImageFix"/>
<feColorMatrix in="SourceAlpha" type="matrix" values="0 0 0 0 0 0 0 0 0 0 0 0 0 0 0 0 0 0 127 0" result="hardAlpha"/>
<feOffset dy="2"/>
<feGaussianBlur stdDeviation="1.5"/>
<feComposite in2="hardAlpha" operator="out"/>
<feColorMatrix type="matrix" values="0 0 0 0 0.128038 0 0 0 0 0.520833 0 0 0 0 0.478369 0 0 0 1 0"/>
<feBlend mode="normal" in2="BackgroundImageFix" result="effect1_dropShadow_1_168"/>
<feBlend mode="normal" in="SourceGraphic" in2="effect1_dropShadow_1_168" result="shape"/>
</filter>
<filter id="filter24_d_1_168" x="228.769" y="20.08" width="36.7348" height="29.3761" filterUnits="userSpaceOnUse" color-interpolation-filters="sRGB">
<feFlood flood-opacity="0" result="BackgroundImageFix"/>
<feColorMatrix in="SourceAlpha" type="matrix" values="0 0 0 0 0 0 0 0 0 0 0 0 0 0 0 0 0 0 127 0" result="hardAlpha"/>
<feOffset dy="2"/>
<feGaussianBlur stdDeviation="1.5"/>
<feComposite in2="hardAlpha" operator="out"/>
<feColorMatrix type="matrix" values="0 0 0 0 0.883333 0 0 0 0 0.636 0 0 0 0 0 0 0 0 0.69 0"/>
<feBlend mode="normal" in2="BackgroundImageFix" result="effect1_dropShadow_1_168"/>
<feBlend mode="normal" in="SourceGraphic" in2="effect1_dropShadow_1_168" result="shape"/>
</filter>
<filter id="filter25_d_1_168" x="283.924" y="21.7578" width="12.7476" height="15.2422" filterUnits="userSpaceOnUse" color-interpolation-filters="sRGB">
<feFlood flood-opacity="0" result="BackgroundImageFix"/>
<feColorMatrix in="SourceAlpha" type="matrix" values="0 0 0 0 0 0 0 0 0 0 0 0 0 0 0 0 0 0 127 0" result="hardAlpha"/>
<feOffset dy="2"/>
<feGaussianBlur stdDeviation="1.5"/>
<feComposite in2="hardAlpha" operator="out"/>
<feColorMatrix type="matrix" values="0 0 0 0 0.128038 0 0 0 0 0.520833 0 0 0 0 0.478369 0 0 0 1 0"/>
<feBlend mode="normal" in2="BackgroundImageFix" result="effect1_dropShadow_1_168"/>
<feBlend mode="normal" in="SourceGraphic" in2="effect1_dropShadow_1_168" result="shape"/>
</filter>
<filter id="filter26_d_1_168" x="272.55" y="13.2464" width="36.9149" height="31.3334" filterUnits="userSpaceOnUse" color-interpolation-filters="sRGB">
<feFlood flood-opacity="0" result="BackgroundImageFix"/>
<feColorMatrix in="SourceAlpha" type="matrix" values="0 0 0 0 0 0 0 0 0 0 0 0 0 0 0 0 0 0 127 0" result="hardAlpha"/>
<feOffset dy="2"/>
<feGaussianBlur stdDeviation="1.5"/>
<feComposite in2="hardAlpha" operator="out"/>
<feColorMatrix type="matrix" values="0 0 0 0 0.128038 0 0 0 0 0.520833 0 0 0 0 0.478369 0 0 0 1 0"/>
<feBlend mode="normal" in2="BackgroundImageFix" result="effect1_dropShadow_1_168"/>
<feBlend mode="normal" in="SourceGraphic" in2="effect1_dropShadow_1_168" result="shape"/>
</filter>
<filter id="filter27_d_1_168" x="275.778" y="20.08" width="36.7348" height="29.3761" filterUnits="userSpaceOnUse" color-interpolation-filters="sRGB">
<feFlood flood-opacity="0" result="BackgroundImageFix"/>
<feColorMatrix in="SourceAlpha" type="matrix" values="0 0 0 0 0 0 0 0 0 0 0 0 0 0 0 0 0 0 127 0" result="hardAlpha"/>
<feOffset dy="2"/>
<feGaussianBlur stdDeviation="1.5"/>
<feComposite in2="hardAlpha" operator="out"/>
<feColorMatrix type="matrix" values="0 0 0 0 0.883333 0 0 0 0 0.636 0 0 0 0 0 0 0 0 0.69 0"/>
<feBlend mode="normal" in2="BackgroundImageFix" result="effect1_dropShadow_1_168"/>
<feBlend mode="normal" in="SourceGraphic" in2="effect1_dropShadow_1_168" result="shape"/>
</filter>
<filter id="filter28_d_1_168" x="331.238" y="21.7578" width="12.2524" height="15.3691" filterUnits="userSpaceOnUse" color-interpolation-filters="sRGB">
<feFlood flood-opacity="0" result="BackgroundImageFix"/>
<feColorMatrix in="SourceAlpha" type="matrix" values="0 0 0 0 0 0 0 0 0 0 0 0 0 0 0 0 0 0 127 0" result="hardAlpha"/>
<feOffset dy="2"/>
<feGaussianBlur stdDeviation="1.5"/>
<feComposite in2="hardAlpha" operator="out"/>
<feColorMatrix type="matrix" values="0 0 0 0 0.128038 0 0 0 0 0.520833 0 0 0 0 0.478369 0 0 0 1 0"/>
<feBlend mode="normal" in2="BackgroundImageFix" result="effect1_dropShadow_1_168"/>
<feBlend mode="normal" in="SourceGraphic" in2="effect1_dropShadow_1_168" result="shape"/>
</filter>
<filter id="filter29_d_1_168" x="319.559" y="13.2464" width="36.9149" height="31.3334" filterUnits="userSpaceOnUse" color-interpolation-filters="sRGB">
<feFlood flood-opacity="0" result="BackgroundImageFix"/>
<feColorMatrix in="SourceAlpha" type="matrix" values="0 0 0 0 0 0 0 0 0 0 0 0 0 0 0 0 0 0 127 0" result="hardAlpha"/>
<feOffset dy="2"/>
<feGaussianBlur stdDeviation="1.5"/>
<feComposite in2="hardAlpha" operator="out"/>
<feColorMatrix type="matrix" values="0 0 0 0 0.128038 0 0 0 0 0.520833 0 0 0 0 0.478369 0 0 0 1 0"/>
<feBlend mode="normal" in2="BackgroundImageFix" result="effect1_dropShadow_1_168"/>
<feBlend mode="normal" in="SourceGraphic" in2="effect1_dropShadow_1_168" result="shape"/>
</filter>
<filter id="filter30_d_1_168" x="322.787" y="20.08" width="36.7348" height="29.3761" filterUnits="userSpaceOnUse" color-interpolation-filters="sRGB">
<feFlood flood-opacity="0" result="BackgroundImageFix"/>
<feColorMatrix in="SourceAlpha" type="matrix" values="0 0 0 0 0 0 0 0 0 0 0 0 0 0 0 0 0 0 127 0" result="hardAlpha"/>
<feOffset dy="2"/>
<feGaussianBlur stdDeviation="1.5"/>
<feComposite in2="hardAlpha" operator="out"/>
<feColorMatrix type="matrix" values="0 0 0 0 0.883333 0 0 0 0 0.636 0 0 0 0 0 0 0 0 0.69 0"/>
<feBlend mode="normal" in2="BackgroundImageFix" result="effect1_dropShadow_1_168"/>
<feBlend mode="normal" in="SourceGraphic" in2="effect1_dropShadow_1_168" result="shape"/>
</filter>
<filter id="filter31_b_1_168" x="6" y="3" width="503" height="165" filterUnits="userSpaceOnUse" color-interpolation-filters="sRGB">
<feFlood flood-opacity="0" result="BackgroundImageFix"/>
<feGaussianBlur in="BackgroundImage" stdDeviation="0.5"/>
<feComposite in2="SourceAlpha" operator="in" result="effect1_backgroundBlur_1_168"/>
<feBlend mode="normal" in="SourceGraphic" in2="effect1_backgroundBlur_1_168" result="shape"/>
</filter>
<radialGradient id="paint0_radial_1_168" cx="0" cy="0" r="1" gradientUnits="userSpaceOnUse" gradientTransform="translate(257.5 85) rotate(90) scale(81 250.5)">
<stop offset="0.708333" stop-color="#272727"/>
<stop offset="1" stop-color="#2E2E2E"/>
</radialGradient>
<linearGradient id="paint1_linear_1_168" x1="501.5" y1="4.00006" x2="7" y2="160.5" gradientUnits="userSpaceOnUse">
<stop stop-color="#C4C4C4" stop-opacity="0.39"/>
<stop offset="0.0833333" stop-color="#9C9C9C" stop-opacity="0.725564"/>
<stop offset="0.104167" stop-color="#A8A8A8" stop-opacity="0.15"/>
<stop offset="0.333333" stop-color="#747474" stop-opacity="0.97"/>
<stop offset="0.380208" stop-color="#A3A3A3"/>
<stop offset="0.791667" stop-color="#ADADAD" stop-opacity="0.28"/>
<stop offset="0.869792" stop-color="#B2B2B2" stop-opacity="0.546219"/>
<stop offset="1" stop-color="#C4C4C4" stop-opacity="0"/>
</linearGradient>
</defs>
</svg>
